<?xml version="1.0" encoding="UTF-8"?>
<svg id="_Слой_2" data-name="Слой 2" xmlns="http://www.w3.org/2000/svg" viewBox="0 0 333.29 131.67">
  <defs>
    <style>
      .cls-1 {
        fill: #404a2b;
      }

      .cls-1, .cls-2, .cls-3, .cls-4 {
        stroke-width: 0px;
      }

      .cls-2 {
        fill: #697c60;
      }

      .cls-3 {
        fill: #99a982;
      }

      .cls-4 {
        fill: #D4A8B4;
      }
    </style>
  </defs>
  <g id="Design">
    <g>
      <g>
        <path class="cls-2" d="M24.11,13.6C20.61,6.55,8.21,8.17,5.43.6c.66,36.28,23.84,23.43,18.67,12.99Z"/>
        <path class="cls-1" d="M4.83.6c0-.29.21-.54.49-.59.29-.05.58.11.68.39,1.33,3.64,5.09,5.01,9.07,6.46,3.82,1.4,7.77,2.84,9.57,6.47h0c1.47,2.96.92,6.42-1.42,9.01-2.36,2.61-5.87,3.55-8.95,2.4-3.39-1.27-9.12-6.09-9.45-24.12h0ZM23.56,13.87c-1.58-3.2-5.14-4.5-8.9-5.87-3.23-1.18-6.55-2.39-8.54-4.93.79,15.87,6.2,19.64,8.58,20.53,2.61.98,5.61.16,7.63-2.07,1.57-1.74,2.71-4.66,1.23-7.66h0Z"/>
      </g>
      <g>
        <path class="cls-2" d="M311.6,13.6c3.49-7.05,15.9-5.43,18.67-12.99-.66,36.28-23.84,23.43-18.67,12.99Z"/>
        <path class="cls-1" d="M310.25,16.77c0-1.17.27-2.34.81-3.44h0c1.8-3.63,5.75-5.08,9.57-6.47,3.98-1.45,7.74-2.83,9.07-6.46.1-.28.39-.44.68-.39.29.05.49.29.49.6-.33,18.03-6.06,22.85-9.45,24.12-3.08,1.15-6.6.21-8.95-2.4-1.47-1.63-2.23-3.59-2.23-5.56ZM312.14,13.87c-1.49,3-.34,5.92,1.23,7.66,2.02,2.24,5.02,3.05,7.63,2.07,2.38-.89,7.79-4.66,8.58-20.53-1.99,2.54-5.31,3.75-8.54,4.93-3.76,1.37-7.32,2.67-8.9,5.87h0Z"/>
      </g>
      <path class="cls-1" d="M9.68,9.31c0-.26.17-.5.44-.58.32-.09.66.09.75.41,1.62,5.61,6.79,10.09,12.58,10.89.33.05.56.36.52.68-.05.33-.35.56-.68.52-6.24-.86-11.83-5.69-13.57-11.75-.02-.06-.02-.11-.02-.17Z"/>
      <path class="cls-1" d="M311.74,20.62c0-.3.22-.56.52-.6,5.78-.8,10.96-5.28,12.58-10.89.09-.32.43-.51.75-.41.32.09.5.43.41.75-1.75,6.05-7.33,10.89-13.57,11.75-.33.05-.64-.19-.68-.52,0-.03,0-.06,0-.08Z"/>
      <g>
        <path class="cls-2" d="M150.72,88.37c-20.43-9.75-52.39.84-64.26-2.49-14.31-4.01-12.54-20.7-3.44-17.02,2.34.95,3.88,3.35,4.27,5.84,2.25-2.5,2.1-6.57.23-9.36-7.49-11.13-29.85-4.99-19.11,14.77,16.68,30.72,83.94,2.16,93.88,23,.51,1.06,1.56,4.99,1.78,6.13,3.23-8.47-5.36-17.08-13.34-20.89Z"/>
        <path class="cls-1" d="M64.96,70.5c0-4.54,2.24-7.71,5.1-9.45,5.25-3.18,13.72-2.35,17.96,3.96,2.15,3.2,2.03,7.54-.28,10.1-.16.17-.4.24-.62.17-.22-.07-.39-.26-.42-.49-.38-2.46-1.91-4.57-3.9-5.37-1.85-.75-3.43-.63-4.58.34-1.43,1.21-2,3.64-1.45,6.2.95,4.38,4.63,7.87,9.86,9.34,4.43,1.24,11.85.48,20.44-.39,13.88-1.42,31.15-3.18,43.92,2.92h0c8.98,4.29,16.81,13.34,13.64,21.65-.1.25-.35.41-.62.39s-.49-.22-.54-.49c-.21-1.13-1.27-5.02-1.73-5.99-4.31-9.05-20.67-8.38-38-7.68-21.81.89-46.53,1.89-55.87-15.29-2.07-3.81-2.92-7.12-2.92-9.91ZM88.36,70.07c0-1.49-.44-3.05-1.34-4.38-3.86-5.74-11.56-6.49-16.33-3.6-5.37,3.25-6.02,9.88-1.75,17.75,8.97,16.52,33.3,15.53,54.75,14.66,18.5-.75,34.48-1.4,39.14,8.37.32.68.83,2.38,1.24,3.88.86-7-5.96-14.18-13.61-17.83h0c-12.47-5.95-29.55-4.2-43.27-2.8-8.71.89-16.24,1.66-20.89.35-5.66-1.59-9.67-5.42-10.71-10.24-.66-3.03.05-5.86,1.85-7.38,1.49-1.26,3.56-1.45,5.82-.54,2,.81,3.6,2.68,4.32,4.97.52-.95.78-2.06.78-3.2ZM150.72,88.37h0s0,0,0,0Z"/>
      </g>
      <g>
        <path class="cls-2" d="M184.99,88.37c20.43-9.75,52.39.84,64.26-2.49,14.31-4.01,12.54-20.7,3.44-17.02-2.34.95-3.88,3.35-4.27,5.84-2.25-2.5-2.1-6.57-.23-9.36,7.49-11.13,29.85-4.99,19.11,14.77-16.68,30.72-83.94,2.16-93.88,23-.51,1.06-1.56,4.99-1.78,6.13-3.23-8.47,5.36-17.08,13.34-20.89Z"/>
        <path class="cls-1" d="M170.36,105.58c0-7.11,6.77-14.13,14.36-17.75h0c12.77-6.09,30.04-4.33,43.92-2.92,8.59.88,16.01,1.63,20.44.39,5.22-1.46,8.91-4.95,9.86-9.34.55-2.56-.01-4.99-1.45-6.2-1.15-.97-2.74-1.09-4.58-.34-1.99.8-3.52,2.91-3.9,5.37-.04.23-.2.42-.42.49-.22.07-.47,0-.62-.17-2.31-2.56-2.43-6.9-.28-10.1,4.25-6.31,12.72-7.14,17.96-3.96,4.62,2.8,7.62,9.35,2.18,19.36-9.33,17.18-34.06,16.18-55.87,15.29-17.32-.7-33.68-1.37-37.99,7.68-.46.97-1.52,4.85-1.73,5.99-.05.27-.27.47-.54.49-.27.02-.52-.13-.62-.39-.49-1.29-.72-2.59-.72-3.9ZM260.36,74.03c0,.71-.08,1.44-.24,2.19-1.05,4.83-5.05,8.66-10.71,10.24-4.65,1.3-12.18.54-20.89-.35-13.73-1.4-30.81-3.14-43.27,2.8-7.65,3.65-14.45,10.87-13.61,17.83.41-1.5.92-3.2,1.24-3.88,4.66-9.77,20.63-9.12,39.14-8.37,21.46.87,45.78,1.86,54.75-14.66,4.27-7.86,3.62-14.5-1.75-17.75-4.77-2.89-12.47-2.13-16.33,3.6-1.58,2.35-1.76,5.39-.56,7.58.72-2.28,2.33-4.16,4.32-4.97,2.26-.91,4.32-.72,5.82.54,1.35,1.14,2.09,3.03,2.09,5.18Z"/>
      </g>
      <g>
        <path class="cls-2" d="M167.85,111.27c-.07,0-.14,0-.2,0-20.71-1.67-17.49,8.7-9.04,9.32,3.22.23,6.23.35,9.24.35s6.02-.12,9.24-.35c8.45-.61,11.67-10.99-9.04-9.32-.07,0-.13,0-.2,0Z"/>
        <path class="cls-1" d="M151.48,115.83c0-.68.21-1.35.63-1.96,1.09-1.58,4.55-4.1,15.59-3.21h.15s.16,0,.16,0c11.03-.89,14.5,1.63,15.59,3.21.74,1.08.83,2.35.25,3.56-.99,2.05-3.62,3.53-6.71,3.75-3.27.24-6.31.35-9.28.35s-6.01-.12-9.28-.35c-3.09-.22-5.72-1.7-6.71-3.75-.25-.53-.38-1.07-.38-1.6ZM183.02,115.83c0-.4-.11-.83-.42-1.28-.75-1.1-3.68-3.56-14.5-2.69-.08,0-.17.01-.25.01s-.16,0-.24,0c-10.82-.87-13.75,1.59-14.5,2.69-.63.91-.43,1.78-.16,2.35.66,1.37,2.68,2.85,5.71,3.07,3.24.24,6.25.35,9.2.35s5.96-.11,9.2-.35c3.03-.22,5.05-1.7,5.7-3.07.14-.29.26-.66.26-1.08Z"/>
      </g>
      <path class="cls-1" d="M157.15,115.45c0-.05,0-.11.02-.16.09-.32.42-.51.74-.43,2.9.79,6.34,1.21,9.94,1.21s7.04-.42,9.94-1.21c.32-.09.65.1.74.43.09.33-.1.65-.42.74-3.01.82-6.55,1.25-10.26,1.25s-7.25-.43-10.26-1.25c-.27-.07-.45-.32-.45-.58Z"/>
      <g>
        <path class="cls-3" d="M31.23,48.86c-3.16-2.44-2.08-7.17-3.28-10.63-.99-2.86-3.26-.5-4.82,4.66-.67-1.1-1.41-2.27-2.18-3.52,2.36-7.74,6.31-11.38,8.47-7.83,4.27,7,.23,16.91,6.77,16.7-.89,1.66-3.46,1.78-4.97.62Z"/>
        <path class="cls-1" d="M20.34,39.37c0-.06,0-.12.03-.18,1.71-5.61,4.29-9.29,6.72-9.6.79-.1,1.92.1,2.85,1.63,1.9,3.12,2.21,6.68,2.48,9.82.38,4.4.72,6.69,3.75,6.59.22,0,.42.1.53.29.11.18.12.41.02.6-.44.82-1.24,1.39-2.25,1.61-1.24.27-2.63-.04-3.62-.8,0,0,0,0,0,0-2.26-1.74-2.54-4.47-2.81-7.1-.14-1.37-.27-2.67-.67-3.81-.17-.51-.41-.83-.59-.83-.6.01-1.95,1.71-3.08,5.46-.07.23-.27.39-.5.43s-.47-.08-.59-.28c-.45-.73-.93-1.5-1.42-2.3l-.75-1.21c-.06-.1-.09-.21-.09-.32ZM34.85,48.74c-3.03-.65-3.33-4.03-3.63-7.59-.26-3.01-.56-6.42-2.31-9.3-.49-.79-1.03-1.14-1.67-1.06-1.5.19-3.89,2.93-5.63,8.49l.61.98c.26.41.51.81.75,1.2.71-1.99,2.09-5.04,3.8-5.07.54-.01,1.28.26,1.76,1.64.44,1.28.59,2.7.73,4.08.26,2.49.5,4.84,2.34,6.26.7.54,1.73.77,2.63.57.19-.04.41-.11.63-.22ZM31.23,48.86h0s0,0,0,0Z"/>
      </g>
      <g>
        <path class="cls-3" d="M304.48,48.86c3.16-2.44,2.08-7.17,3.28-10.63.99-2.86,3.26-.5,4.82,4.66.67-1.1,1.41-2.27,2.18-3.52-2.36-7.74-6.31-11.38-8.47-7.83-4.27,7-.23,16.91-6.77,16.7.89,1.66,3.46,1.78,4.97.62Z"/>
        <path class="cls-1" d="M298.91,48.24c0-.11.03-.22.09-.32.11-.18.32-.29.53-.29,3.03.1,3.37-2.19,3.75-6.59.27-3.14.58-6.71,2.48-9.82.93-1.53,2.07-1.73,2.85-1.63,2.43.31,5.01,3.99,6.72,9.6.05.16.03.35-.06.49l-.79,1.27c-.49.78-.95,1.53-1.39,2.25-.12.2-.36.32-.59.28s-.43-.2-.5-.43c-1.13-3.75-2.49-5.45-3.08-5.46-.18,0-.42.32-.59.83-.4,1.14-.53,2.44-.67,3.81-.27,2.63-.55,5.35-2.81,7.1t0,0c-.99.76-2.37,1.07-3.62.8-1.01-.22-1.81-.79-2.25-1.61-.05-.09-.07-.19-.07-.29ZM314.1,39.28c-1.74-5.56-4.13-8.3-5.63-8.49-.63-.08-1.18.27-1.67,1.06-1.75,2.87-2.05,6.29-2.31,9.3-.31,3.55-.6,6.93-3.63,7.59.22.11.44.18.63.22.89.19,1.92-.03,2.63-.57h0c1.85-1.43,2.09-3.78,2.34-6.26.14-1.38.29-2.81.73-4.09.48-1.37,1.22-1.65,1.76-1.64,1.71.03,3.09,3.09,3.8,5.07.23-.37.47-.76.71-1.15l.64-1.04Z"/>
      </g>
      <g>
        <path class="cls-3" d="M166.64,127.45h0c-13,.01-15.38-8.37-23.26-12.85-10.9-6.19-22.99-.17-66.97-3.97h-.03c-10.55-2.24-27.26-7.53-44.13-25.9-.49-.52-.97-1.06-1.44-1.6-.21-.25-.43-.48-.63-.72-10.44-12.02-10.96-27.26-8.99-36.66-.72-1.14-1.51-2.12-2.37-2.82-2.08,9.96-1.56,24.53,6.33,39.32.41.77.98,1.64,1.69,2.58.54.71,1.17,1.47,1.87,2.26,6.37,7.17,19.13,17.04,34.09,22.21-45.66-4.57-45.06.98-50.99-4.19-5.44-4.76-4.48-18.57-3.3-25.4,2.1,6.46,9.61,10.63,16.2,8.99,1.42-.35,2.73-.92,4-1.61-.7-.79-1.33-1.55-1.87-2.26C3.82,92.14,6.35,43.93,14.37,41.78c1.68-.45,3.13.05,4.45,1.15.86.71,1.65,1.69,2.37,2.82,2.19,3.35,3.9,8.07,5.47,11.62,4.45,10.02,9.73,10.67,12.88,8.3.31,2.77.85,5.38,1.83,7.73.05.13.11.24.16.37-1.09,1.7-3.4,5.43-10.49,9.25l-.23.12c.48.54.95,1.08,1.44,1.6,3.71-1.61,7.2-4.2,10.84-7.56,26.66,54.49,94.83,9.99,114.9,32.47.26-.82.08-1.66-.31-2.42-6.95-13.51-20.92-5.9-60.13-5.38-33.07.44-50.81-21.55-53.65-38.38-1.58-9.33,3.4-35.42-20.94-42.59,16.63,9.51,15.82,24.63,16.16,37.84-1.24,1.09-3.24,1.68-4.66,1.21-2.71-.92-3.3-2.09-12.56-17.04-.67-1.1-1.41-2.27-2.18-3.52-.63-1.01-1.29-2.06-1.99-3.19-5.15-8.27-9.42,1.83-10.65,10.86-.71,5.08-.61,10.25-1.25,15.34-1.12,8.68-4.42,17-5.13,25.72-1.04,12.62,5.86,26.48,20.25,24.6,21.27-2.79,18.01-2.22,54.08,1.16,30.76,2.89,54.05-3.47,66.79,3.41,8.32,4.49,10.73,13.8,24.8,13.8h0c14.07,0,16.48-9.31,24.8-13.8,12.74-6.88,36.03-.52,66.79-3.41,36.08-3.38,32.81-3.95,54.08-1.16,14.4,1.88,21.3-11.98,20.25-24.6-.71-8.72-4.01-17.04-5.13-25.72-.64-5.08-.54-10.25-1.25-15.34-1.24-9.03-5.51-19.13-10.65-10.86-.7,1.12-1.35,2.18-1.99,3.19-.77,1.25-1.51,2.42-2.18,3.52-9.26,14.95-9.85,16.12-12.56,17.04-1.42.47-3.41-.12-4.66-1.21.34-13.21-.47-28.33,16.16-37.84-24.34,7.16-19.36,33.25-20.94,42.59-2.85,16.82-20.58,38.81-53.65,38.38-39.2-.52-53.18-8.13-60.13,5.38-.39.76-.57,1.6-.31,2.42,20.07-22.48,88.24,22.02,114.9-32.47,3.64,3.37,7.13,5.96,10.84,7.56.49-.52.97-1.06,1.44-1.6l-.23-.12c-7.09-3.81-9.4-7.55-10.49-9.25.05-.12.11-.24.16-.37.99-2.35,1.52-4.96,1.83-7.73,3.15,2.37,8.44,1.72,12.88-8.3,1.57-3.55,3.28-8.27,5.47-11.62.72-1.14,1.51-2.12,2.37-2.82,1.32-1.1,2.77-1.6,4.45-1.15,8.02,2.15,10.55,50.36-12.47,43.04-.54.71-1.17,1.47-1.87,2.26,1.26.7,2.58,1.26,4,1.61,6.59,1.64,14.1-2.53,16.2-8.99,1.17,6.82,2.14,20.64-3.3,25.4-5.93,5.17-5.33-.37-50.99,4.19,14.96-5.17,27.72-15.04,34.09-22.21.7-.79,1.33-1.55,1.87-2.26.71-.94,1.28-1.81,1.69-2.58,7.89-14.78,8.41-29.36,6.33-39.32-.86.71-1.65,1.69-2.37,2.82,1.97,9.4,1.44,24.64-8.99,36.66-.21.25-.43.48-.63.72-.48.54-.95,1.08-1.44,1.6-16.87,18.37-33.58,23.66-44.13,25.9h-.03c-43.99,3.81-56.07-2.22-66.97,3.97-7.88,4.48-10.25,12.86-23.26,12.85h0Z"/>
        <path class="cls-1" d="M0,90.63c0-.86.04-1.72.11-2.58.39-4.78,1.56-9.5,2.7-14.06.95-3.81,1.93-7.75,2.44-11.69.31-2.41.45-4.9.58-7.31.15-2.64.3-5.36.67-8.04.91-6.63,3.37-13.65,6.82-14.38,1.7-.36,3.36.74,4.95,3.28.7,1.12,1.35,2.18,1.98,3.18l.75,1.22c.5.81.98,1.58,1.43,2.31l1.53,2.47c7.73,12.5,8.37,13.52,10.71,14.31,1.07.36,2.71-.04,3.85-.92-.02-.74-.03-1.48-.05-2.23-.25-12.81-.52-26.06-15.8-34.8-.27-.15-.38-.48-.26-.76.12-.28.43-.43.73-.34,20.13,5.93,20.64,24.91,20.94,36.25.07,2.73.13,5.08.43,6.81,2.62,15.47,18.9,38.32,53.05,37.87,12.2-.16,21.96-1.01,29.81-1.7,17.24-1.5,25.9-2.26,30.86,7.41.51.99.63,1.99.35,2.88-.07.21-.24.36-.45.41-.21.04-.43-.03-.58-.19-7.74-8.67-22.85-7.11-40.36-5.31-27.15,2.79-57.89,5.96-74.27-26.58-3.49,3.16-6.59,5.34-9.64,6.78,18.52,19.83,37.06,23.79,43.22,25.1,20.55,1.77,33.99,1.4,43.81,1.14,11.23-.3,17.42-.47,23.37,2.91,2.67,1.52,4.73,3.47,6.71,5.37,4,3.81,7.78,7.41,16.24,7.4h0c8.46,0,12.24-3.59,16.24-7.4,1.99-1.89,4.04-3.85,6.72-5.37,5.95-3.38,12.14-3.21,23.37-2.91,9.84.27,23.31.63,43.84-1.14,6.09-1.3,24.66-5.24,43.19-25.09-3.05-1.44-6.15-3.62-9.64-6.78-16.38,32.54-47.13,29.37-74.27,26.58-17.51-1.8-32.62-3.36-40.36,5.31-.14.16-.36.23-.58.19-.21-.05-.38-.2-.45-.41-.28-.89-.16-1.89.35-2.88,4.97-9.66,13.62-8.91,30.86-7.41,7.85.68,17.61,1.53,29.81,1.7,34.14.45,50.43-22.4,53.05-37.87.29-1.73.36-4.09.43-6.81.3-11.34.8-30.33,20.94-36.25.29-.09.61.06.73.34.12.28.01.61-.26.76-15.28,8.74-15.55,21.99-15.8,34.8-.01.75-.03,1.5-.05,2.23,1.14.88,2.78,1.28,3.85.92,2.34-.79,2.97-1.81,10.7-14.3l1.54-2.49c.44-.71.9-1.47,1.39-2.25l.79-1.27c.63-1.01,1.29-2.07,1.99-3.19,1.58-2.54,3.25-3.65,4.95-3.29,3.45.74,5.91,7.75,6.82,14.38.37,2.67.52,5.4.67,8.03.13,2.41.27,4.9.58,7.31.51,3.93,1.49,7.88,2.44,11.69,1.14,4.56,2.31,9.28,2.7,14.06.68,8.24-1.94,16.25-6.83,20.91-3.73,3.55-8.6,5.05-14.1,4.33-17.93-2.35-18.34-2.31-39.84-.2-3.92.39-8.55.84-14.11,1.36-13.15,1.24-24.82.79-35.11.4-13.57-.52-24.29-.93-31.45,2.94-2.74,1.48-4.79,3.47-6.97,5.57-4.21,4.08-8.57,8.3-18.13,8.3s-13.92-4.22-18.13-8.3c-2.17-2.1-4.22-4.09-6.97-5.57-7.17-3.87-17.88-3.46-31.45-2.94-10.29.39-21.95.84-35.11-.4-5.56-.52-10.18-.97-14.11-1.36-21.51-2.11-21.92-2.15-39.84.2-5.5.72-10.37-.78-14.1-4.33C2.56,104.79,0,97.93,0,90.63ZM39.74,58.72c0,.17-.08.34-.21.45-1.48,1.29-3.68,1.85-5.25,1.33-2.76-.93-3.41-1.98-11.35-14.82l-1.53-2.47c-.45-.74-.93-1.5-1.43-2.31l-.75-1.21c-.63-1-1.29-2.06-1.99-3.19-1.29-2.06-2.52-2.99-3.67-2.74-2.41.52-4.88,6.14-5.88,13.37-.37,2.62-.52,5.32-.66,7.94-.14,2.43-.28,4.94-.59,7.39-.52,4.01-1.51,7.98-2.47,11.83-1.12,4.52-2.29,9.18-2.67,13.87-.64,7.87,1.82,15.52,6.46,19.94,3.45,3.29,7.99,4.68,13.11,4.01,18.06-2.36,18.47-2.32,40.12-.2,3.92.39,8.55.84,14.1,1.36,13.07,1.23,24.69.78,34.95.39,13.75-.53,24.62-.94,32.07,3.08,2.89,1.56,5.1,3.7,7.23,5.77,4.23,4.1,8.22,7.96,17.28,7.96s13.06-3.87,17.29-7.96c2.14-2.07,4.34-4.21,7.23-5.77,7.46-4.02,18.32-3.61,32.07-3.08,10.25.39,21.87.84,34.95-.39,5.56-.52,10.18-.97,14.1-1.36,21.64-2.13,22.06-2.17,40.12.2,5.12.67,9.66-.72,13.11-4.01,4.64-4.42,7.11-12.06,6.46-19.94-.38-4.68-1.54-9.35-2.67-13.87-.96-3.84-1.95-7.82-2.46-11.83-.31-2.46-.45-4.97-.59-7.4-.15-2.61-.3-5.31-.66-7.93-.99-7.23-3.46-12.85-5.87-13.37-1.15-.24-2.38.68-3.67,2.74-.7,1.12-1.36,2.18-1.99,3.19l-.79,1.27c-.49.78-.95,1.53-1.39,2.25l-1.54,2.49c-7.94,12.83-8.59,13.88-11.34,14.81-1.57.53-3.78-.04-5.26-1.34-.13-.11-.2-.28-.19-.46.02-.83.04-1.68.06-2.53.22-11.22.47-23.79,11.92-32.81-14.41,7.05-14.82,22.59-15.1,33.21-.07,2.77-.14,5.17-.44,6.98-2.69,15.88-19.35,39.34-54.26,38.88-12.24-.16-22.03-1.02-29.9-1.7-17.22-1.5-25.09-2.19-29.68,6.75-.12.23-.21.46-.27.68,8.37-7.94,23.25-6.41,40.36-4.65,26.95,2.77,57.5,5.92,73.42-26.63.08-.17.24-.29.43-.33.19-.04.38.02.52.15,3.78,3.49,7.06,5.82,10.28,7.28.21-.23.42-.46.63-.7-6.75-3.74-9.08-7.35-10.21-9.11-.11-.17-.19-.48-.11-.67l.16-.36c.87-2.06,1.45-4.54,1.79-7.56.02-.21.16-.4.36-.49.2-.09.43-.06.6.07.88.66,2.32,1.35,4.2.86,1.97-.51,4.91-2.47,7.77-8.92.4-.9.8-1.87,1.22-2.88,1.23-2.94,2.62-6.28,4.29-8.83.03-.05.06-.1.1-.15.77-1.19,1.55-2.11,2.36-2.78.01-.01.03-.02.04-.03,1.57-1.31,3.25-1.73,4.99-1.26,2.52.67,4.01,4.65,4.82,7.86,2.48,9.84,1.97,27.19-5.41,34.13-3.13,2.94-7.1,3.73-11.82,2.34-.34.44-.72.9-1.14,1.38,1.1.55,2.15.95,3.18,1.2,6.25,1.55,13.49-2.46,15.48-8.59.09-.26.34-.44.62-.42.28.02.5.23.55.5.35,2.04,3.23,20.07-3.5,25.96-3.08,2.69-4.68,2.64-10.62,2.48-6.09-.17-17.43-.47-40.71,1.85-.31.03-.59-.17-.65-.47-.07-.3.1-.6.39-.7,15.18-5.25,27.71-15.15,33.84-22.04,0,0,0,0,0,0,.7-.79,1.32-1.54,1.84-2.22.69-.92,1.24-1.76,1.64-2.5,8.82-16.51,7.67-31.29,6.48-37.84-.45.49-.9,1.07-1.35,1.75,2.11,10.38.8,25.45-9.18,36.93-.1.12-.21.25-.32.37-.1.11-.2.23-.3.34h0s0,0,0,0c-.47.54-.95,1.08-1.44,1.59l-.02.02c-18.98,20.66-38.14,24.74-44.44,26.08h-.03c-20.62,1.79-34.16,1.43-44.05,1.16-11.02-.3-17.09-.46-22.74,2.75-2.54,1.44-4.54,3.35-6.48,5.19-4,3.81-8.13,7.74-17.08,7.74v-.6s0,.6,0,.6c-8.95,0-13.08-3.93-17.08-7.74-1.93-1.84-3.94-3.75-6.48-5.19-5.66-3.21-11.73-3.05-22.74-2.75-9.87.27-23.38.63-43.98-1.15-6.4-1.35-25.56-5.43-44.54-26.09-.05-.05-.1-.11-.15-.16h0s0,0,0,0c-.41-.44-.82-.89-1.22-1.35,0,0,0,0,0,0l-.05-.06s0-.01-.01-.02c0,0-.01-.01-.02-.02-.11-.13-.21-.24-.31-.35-.11-.12-.22-.24-.32-.37-9.96-11.48-11.28-26.55-9.17-36.93-.45-.68-.9-1.27-1.35-1.75-1.19,6.54-2.34,21.32,6.48,37.84.39.73.94,1.57,1.64,2.5.48.63,1.05,1.32,1.68,2.04.05.06.11.12.16.19,6.12,6.89,18.65,16.79,33.84,22.04.29.1.46.4.39.7-.07.3-.34.5-.65.47-23.27-2.33-34.61-2.02-40.71-1.85-5.94.16-7.54.2-10.62-2.48-6.73-5.88-3.85-23.92-3.5-25.96.05-.27.28-.48.55-.5s.53.15.62.42c1.99,6.13,9.23,10.14,15.48,8.59,1.04-.25,2.09-.65,3.19-1.2-.41-.48-.79-.94-1.14-1.38-4.72,1.39-8.69.6-11.82-2.34-7.38-6.94-7.88-24.28-5.41-34.13.81-3.21,2.3-7.18,4.82-7.86,1.74-.47,3.42-.04,4.99,1.27.86.7,1.67,1.67,2.5,2.96,1.66,2.54,3.06,5.88,4.29,8.83.42,1.01.83,1.98,1.22,2.88,2.86,6.45,5.8,8.41,7.77,8.92,1.87.49,3.32-.2,4.2-.86.17-.13.4-.16.6-.07s.34.27.36.49c.34,3.02.92,5.5,1.79,7.56l.16.36c.08.18.06.4-.05.56-1.19,1.86-3.52,5.48-10.27,9.21.21.24.42.47.63.7,3.23-1.46,6.51-3.79,10.28-7.28.14-.13.33-.19.52-.15.19.03.35.16.43.33,15.92,32.55,46.47,29.4,73.42,26.63,17.11-1.76,31.99-3.29,40.36,4.65-.06-.22-.15-.45-.27-.69-4.59-8.94-12.46-8.25-29.68-6.75-7.87.69-17.66,1.54-29.9,1.7-34.9.46-51.57-23-54.26-38.88-.31-1.82-.37-4.21-.44-6.98-.28-10.62-.7-26.16-15.11-33.22,11.44,9.03,11.69,21.59,11.92,32.81.02.85.03,1.69.05,2.52v.02ZM8.79,81.9c-.99,7.39-1.18,18.72,3.42,22.74,2.73,2.38,3.8,2.35,9.79,2.18,5.71-.15,16.03-.43,36.37,1.43-13.24-5.46-24.07-14.1-29.8-20.42-1.28.67-2.51,1.14-3.72,1.44-6.24,1.55-13.12-1.75-16.07-7.37ZM18.15,43.17c-1.18-.88-2.37-1.15-3.63-.81-1.48.4-2.96,3.01-3.96,6.98-2.4,9.56-1.98,26.33,5.06,32.95,2.7,2.54,6.13,3.27,10.22,2.18-.5-.71-.91-1.36-1.23-1.96-9.34-17.49-7.71-33.09-6.47-39.35ZM21.49,47.42c-1.69,10.02-.13,23.91,9.15,34.6.1.12.2.24.3.35,0,0,.01.01.02.02,6.44-3.5,8.76-6.91,9.9-8.66l-.04-.08c-.82-1.95-1.4-4.22-1.76-6.93-1.35.73-2.88.91-4.38.52-2.22-.58-5.52-2.71-8.57-9.6-.4-.9-.81-1.89-1.23-2.9-1-2.4-2.12-5.06-3.38-7.3ZM76.39,110.63h0s0,0,0,0ZM304.71,87.84c-5.73,6.32-16.56,14.96-29.8,20.42,20.35-1.86,30.66-1.59,36.37-1.43,5.99.16,7.07.19,9.79-2.19,4.6-4.02,4.42-15.34,3.42-22.74-2.95,5.62-9.83,8.93-16.07,7.37-1.22-.3-2.44-.77-3.72-1.44ZM294.23,66.7c-.36,2.71-.94,4.99-1.76,6.94l-.04.08c1.13,1.75,3.45,5.15,9.9,8.66,0,0,0,0,0,0,.1-.12.21-.23.31-.35,9.28-10.69,10.84-24.58,9.15-34.61-1.27,2.24-2.38,4.91-3.38,7.3-.42,1.01-.83,2-1.23,2.9-3.06,6.89-6.35,9.02-8.57,9.6-1.5.39-3.03.2-4.38-.52ZM316.1,53.46c0,7.67-1.52,17.99-7.43,29.07-.32.6-.73,1.25-1.23,1.96,4.08,1.09,7.52.35,10.21-2.18,7.04-6.62,7.46-23.39,5.06-32.95-1-3.98-2.48-6.59-3.96-6.98-1.26-.34-2.45-.07-3.63.81.46,2.3.96,5.85.96,10.29Z"/>
      </g>
      <g>
        <path class="cls-4" d="M151.55,77.43c2.72-1.51,6.56-.44,8.11,2.26-1.64-5.09,5.77-7.79,7.98-11.67,2.21,3.88,9.62,6.58,7.98,11.67,1.54-2.7,5.39-3.77,8.11-2.26,1.34.74,3.58,3.24,7.35,2.14,10.74,2.51,20.06-7.31,16.93-17.89-3.99,4.55-12.6.45-16.7,5.29,2.84-6.4,3.59-13.74-.32-19.36-1.35,5.45-9.55,4.17-12.77,8.15.81-9.79-7.78-11.46-10.58-16.83-2.81,5.37-11.4,7.04-10.58,16.83-3.22-3.98-11.42-2.7-12.77-8.15-3.91,5.62-3.16,12.96-.32,19.36-4.09-4.85-12.71-.75-16.7-5.29-3.13,10.59,6.19,20.4,16.93,17.89,3.77,1.1,6.01-1.39,7.35-2.14Z"/>
        <path class="cls-3" d="M169.02,106.39c.1.51-2.36.42-3.27.05,3.38-10.77-6.19-14.27-5.04-17.76,1.38-.58,3.63-1.67,6.87-.9,2.26-.98,5.32.52,6.68,1.13-.39.61-.77,2-1.65,3.03-2.77,4.64-3.89,6.35-4.11,8.23-.39,3.38.3,5.16.51,6.22Z"/>
        <g>
          <path class="cls-3" d="M167.57,67.76c2.21,3.88,9.62,6.58,7.98,11.67,1.54-2.7,5.39-3.77,8.11-2.26,1.34.74,3.58,3.24,7.35,2.14-2.5,2.94-14.87,9.86-16.69,9.76-1.64-.09-3.09-1.51-4.72-1.25-.6.09-1.14.41-1.73.55-.1.02-.19.03-.29.03-.1,0-.2,0-.29-.03-.59-.14-1.13-.45-1.73-.55-1.63-.26-3.08,1.16-4.72,1.25-1.82.1-14.19-6.82-16.69-9.76,3.77,1.1,6.01-1.39,7.35-2.14,2.72-1.51,6.56-.44,8.11,2.26-1.64-5.09,5.77-7.79,7.98-11.67Z"/>
          <path class="cls-1" d="M143.66,79.31c0-.09.03-.18.08-.26.12-.18.33-.26.54-.2,2.83.83,4.7-.51,6.06-1.49.34-.24.65-.46.92-.61,2.44-1.35,5.62-.83,7.62,1.02.11-2.63,2.43-4.6,4.68-6.51,1.47-1.25,2.85-2.43,3.6-3.74.09-.15.24-.24.42-.24s.33.09.42.24c.75,1.31,2.13,2.49,3.6,3.74,2.25,1.92,4.57,3.89,4.68,6.51,2-1.86,5.19-2.38,7.62-1.02.27.15.57.37.92.61,1.37.98,3.24,2.31,6.06,1.49.2-.06.42.02.54.2.12.18.1.41-.04.57-2.62,3.08-15.07,10.04-17.08,9.93-.82-.05-1.57-.37-2.28-.69-.81-.36-1.57-.69-2.33-.57-.28.04-.56.15-.86.27-.28.11-.55.21-.84.28-.13.03-.27.04-.41.04-.13,0-.26-.01-.39-.04-.29-.07-.56-.17-.84-.28-.3-.11-.58-.22-.86-.27-.76-.12-1.53.21-2.33.57-.72.32-1.46.64-2.28.69-2.02.11-14.47-6.85-17.08-9.93-.08-.09-.11-.2-.11-.31ZM160.07,79.43c0,.19-.11.36-.29.44-.22.1-.49.01-.61-.2-1.41-2.47-4.97-3.46-7.46-2.08-.24.13-.52.33-.83.55-1.19.85-2.89,2.06-5.29,1.91,3.91,3.29,13.83,8.61,15.2,8.53.65-.04,1.28-.31,1.95-.61.9-.4,1.83-.8,2.87-.64.38.06.72.19,1.05.32.23.09.47.18.71.24.05.01.11.02.18.02.08,0,.14,0,.19-.02.24-.06.48-.15.71-.24.33-.13.67-.26,1.05-.32,1.04-.16,1.97.24,2.87.64.67.29,1.3.57,1.95.61,1.36.07,11.28-5.24,15.2-8.53-2.4.15-4.1-1.06-5.29-1.91-.31-.22-.58-.42-.82-.55-2.49-1.38-6.04-.39-7.46,2.08-.12.21-.39.3-.61.2-.22-.1-.34-.35-.26-.59.96-2.97-1.51-5.07-4.13-7.29-1.25-1.06-2.53-2.15-3.4-3.35-.87,1.2-2.15,2.29-3.4,3.35-2.62,2.23-5.08,4.33-4.13,7.29.02.05.02.1.02.15Z"/>
        </g>
        <path class="cls-1" d="M167.88,102.65c0-4.43,2.33-7.36,4.14-9.65,1.22-1.54,2.19-2.75,1.85-3.78-.08-.25.05-.52.31-.61.25-.08.52.05.61.31.5,1.52-.61,2.91-2.01,4.68-2.24,2.82-5.3,6.69-3.23,13.3.08.25-.06.52-.31.6-.25.08-.52-.06-.6-.31-.52-1.67-.74-3.17-.74-4.53Z"/>
        <path class="cls-1" d="M160.25,89.67c0-.25.04-.5.12-.75.08-.25.35-.39.61-.31.25.08.39.35.31.61-.34,1.03.63,2.24,1.85,3.78,2.37,2.99,5.62,7.09,3.4,14.18-.08.25-.35.39-.6.31-.25-.08-.39-.35-.31-.6,2.07-6.61-.99-10.47-3.23-13.3-1.17-1.47-2.13-2.69-2.13-3.93Z"/>
        <path class="cls-1" d="M126.11,65.58c0-1.43.21-2.87.63-4.3.05-.17.19-.3.36-.33s.35.02.46.15c1.83,2.08,4.74,2.22,7.81,2.36,2.58.12,5.23.24,7.32,1.57-2.52-6.8-2.13-13.27,1.13-17.96.11-.15.3-.23.48-.2.19.03.33.17.38.36.7,2.82,3.47,3.69,6.41,4.62,1.92.61,3.9,1.23,5.37,2.44,0-5.78,3.38-8.66,6.41-11.22,1.72-1.46,3.35-2.83,4.28-4.62.08-.16.25-.26.43-.26s.34.1.43.26c.93,1.79,2.56,3.16,4.28,4.62,3.02,2.55,6.41,5.43,6.41,11.17v.05c1.47-1.21,3.45-1.83,5.37-2.44,2.93-.92,5.71-1.8,6.41-4.62.05-.18.19-.32.38-.36.19-.03.37.04.48.2,3.26,4.69,3.64,11.15,1.13,17.96,2.09-1.32,4.74-1.45,7.32-1.57,3.08-.14,5.99-.28,7.81-2.36.12-.13.29-.19.46-.15.17.04.31.16.36.33,1.51,5.12.26,10.47-3.36,14.3-3.63,3.85-8.92,5.42-14.15,4.2-.26-.06-.42-.32-.36-.58.06-.26.32-.42.58-.36,4.89,1.14,9.84-.32,13.23-3.92,3.19-3.39,4.41-8.04,3.34-12.58-2.09,1.81-5.03,1.95-7.88,2.08-3.22.15-6.25.29-8.2,2.6-.15.18-.42.22-.62.1-.2-.13-.28-.39-.18-.6,3.01-6.77,3.09-13.29.25-18.07-1.16,2.58-3.98,3.46-6.71,4.33-2.22.7-4.51,1.42-5.82,3.03-.13.16-.36.22-.55.14-.2-.08-.33-.27-.3-.48.5-6.15-2.81-8.94-6.02-11.66-1.56-1.33-3.05-2.59-4.09-4.18-1.03,1.6-2.52,2.86-4.09,4.18-3.21,2.72-6.53,5.52-6.02,11.66.02.21-.1.41-.3.48-.2.08-.42.02-.55-.14-1.31-1.61-3.6-2.34-5.82-3.03-2.74-.86-5.56-1.75-6.71-4.33-2.84,4.78-2.76,11.3.25,18.07.1.22.02.47-.18.6-.2.13-.47.09-.62-.1-1.95-2.3-4.98-2.45-8.2-2.6-2.85-.13-5.79-.27-7.88-2.08-1.07,4.55.15,9.2,3.34,12.58,3.39,3.6,8.34,5.06,13.23,3.92.26-.06.52.1.58.36.06.26-.1.52-.36.58-5.23,1.22-10.52-.35-14.15-4.2-2.61-2.76-3.99-6.31-3.99-10Z"/>
        <path class="cls-1" d="M191.16,75.15h0c0-.27.22-.49.49-.48,4.32.09,8.65-2.38,10.76-6.15.13-.23.42-.31.65-.18.23.13.31.42.18.65-2.29,4.07-6.96,6.74-11.62,6.64-.26,0-.47-.22-.47-.48Z"/>
        <path class="cls-1" d="M131.83,68.75c0-.17.09-.33.24-.42.23-.13.52-.05.65.18,2.12,3.77,6.44,6.24,10.76,6.15.27,0,.48.21.49.47,0,.28-.21.48-.47.49-4.66.09-9.33-2.58-11.62-6.64-.04-.07-.06-.16-.06-.24Z"/>
        <path class="cls-1" d="M182.21,74.85c0-.21.13-.4.34-.46,2.92-.88,5.44-2.92,6.91-5.58.13-.23.42-.32.65-.19.23.13.32.42.19.65-1.59,2.89-4.32,5.09-7.47,6.04-.25.08-.52-.07-.6-.32-.01-.05-.02-.09-.02-.14Z"/>
        <path class="cls-1" d="M144.79,69.04c0-.17.09-.33.25-.42.23-.13.52-.04.65.19,1.47,2.67,3.99,4.7,6.91,5.58.25.08.4.35.32.6-.08.25-.34.4-.6.32-3.16-.95-5.88-3.15-7.47-6.04-.04-.07-.06-.15-.06-.23Z"/>
        <path class="cls-1" d="M175.92,73.29c0-.17.09-.33.25-.42,3.83-2.12,9.12-6.04,10.95-15.64.05-.26.3-.43.56-.38.26.05.43.3.38.56-2.12,11.15-9.13,15.02-11.43,16.3-.23.13-.52.04-.65-.19-.04-.07-.06-.15-.06-.23Z"/>
        <path class="cls-1" d="M147.09,57.33c0-.23.16-.43.39-.47.26-.05.51.12.56.38,1.83,9.6,7.12,13.52,10.95,15.64.23.13.32.42.19.65-.13.23-.42.32-.65.19-2.3-1.27-9.3-5.15-11.43-16.3,0-.03,0-.06,0-.09Z"/>
        <path class="cls-1" d="M173.33,69.04c0-.09.03-.19.08-.27,2-2.92,3.15-6.48,3.24-10.02,0-.27.23-.48.49-.47.26,0,.45.21.47.49-.09,3.73-1.3,7.47-3.41,10.54-.15.22-.45.27-.67.12-.14-.09-.21-.24-.21-.4Z"/>
        <path class="cls-1" d="M157.54,58.76c0-.26.21-.47.47-.48.27,0,.48.2.49.47.09,3.54,1.24,7.1,3.24,10.02.15.22.09.52-.12.67-.22.15-.52.09-.67-.12-2.11-3.07-3.32-6.82-3.41-10.54h0Z"/>
        <path class="cls-1" d="M167.09,64.03v-17.35c0-.27.21-.48.48-.48s.48.21.48.48v17.35c0,.27-.21.48-.48.48s-.48-.21-.48-.48Z"/>
      </g>
    </g>
  </g>
</svg>