<?xml version="1.0" encoding="UTF-8"?>
<svg id="_Слой_2" data-name="Слой 2" xmlns="http://www.w3.org/2000/svg" viewBox="0 0 329.98 40.26">
  <defs>
    <style>
      .cls-1 {
        fill: none;
      }

      .cls-1, .cls-2, .cls-3, .cls-4, .cls-5 {
        stroke-width: 0px;
      }

      .cls-2 {
        fill: #99a982;
      }

      .cls-3 {
        fill: #404a2a;
      }

      .cls-4 {
        fill: #fff4e3;
      }

      .cls-5 {
        fill: #D4A8B4;
      }
    </style>
  </defs>
  <g id="Design">
    <g>
      <path class="cls-4" d="M243.83,16.66l-1.19,1.46,2.46,2.14s1.54.93.96,2.57,1.71,1.82,1.71,1.82c0,0,7.07,1.39,11.25.96s10.93-.75,11.25-.96,3.96-1.82,4.29-1.93,9.75-6.32,9.75-6.32c0,0-2.25,1.5-12.64,2.79s-25.61-2.14-25.93-2.14-1.92-.39-1.92-.39Z"/>
      <path class="cls-4" d="M86.09,16.34l1.19,1.46-2.46,2.14s-1.54.93-.96,2.57-1.71,1.82-1.71,1.82c0,0-7.07,1.39-11.25.96s-10.93-.75-11.25-.96-3.96-1.82-4.29-1.93-9.75-6.32-9.75-6.32c0,0,2.25,1.5,12.64,2.79s25.61-2.14,25.93-2.14,1.92-.39,1.92-.39Z"/>
      <path class="cls-2" d="M242.21,18.02s4.07,1.71,3.75,3.86-1.07,4.07-2.04,4.39-2.46.64-2.79.75-1.71.11-1.71.11l.11-1.82-1.71-2.46.96-1.39,3.43-3.43Z"/>
      <path class="cls-2" d="M87.28,17.8l-2.89,3.32-.32,3.21,2.25,1.5,1.61,1.18,1.82.32,2.79-.96.96-3.32s-.86-2.46-1.61-2.68-4.61-2.57-4.61-2.57Z"/>
      <g>
        <path class="cls-5" d="M220.5,22.03c13.56,11.11,17.04,4.74,13.62-2.53,5.53,2.06,9.91-6.96.92-9.36-6.41-1.72-13.49.05-19.67-2.37.57,2.99,2.32,5.74,4.78,7.52-2.65-.75-7.33,1.32-9.71,2.51,3.96.2,7.02,1.74,10.06,4.23Z"/>
        <path class="cls-5" d="M109.24,22.15c-13.56,11.11-17.04,4.74-13.62-2.53-5.53,2.06-9.91-6.96-.92-9.36,6.41-1.72,13.49.05,19.67-2.37-.57,2.99-2.32,5.74-4.78,7.52,2.65-.75,7.33,1.32,9.71,2.51-3.96.2-7.02,1.74-10.06,4.23Z"/>
        <g>
          <path class="cls-5" d="M119.63,1.71c-4.13,6.64-14.39,4.77-19.3,4.73-8.79-.08-14.65,4.92-13.19,10.05.04,0,.07-.02.11-.03-.04,0-.07.02-.11.03.17.6.45,1.19.82,1.79h0c.92,1.44,2.45,2.86,4.73,4.12-2.04.62-2.6,3.54-1.44,5.33,1.94,3.01,7.72,3.75,10.92,2.54,2.99-1.13,14.39-12.98,23.67-9.31-3.41-5.76-11.4-7.04-11.52-6.94,3.73-3.08,6.39-7.25,5.32-12.31ZM110.19,15.66c2.65-.75,7.33,1.32,9.71,2.51-3.96.2-7.02,1.74-10.06,4.23-13.56,11.11-17.04,4.74-13.62-2.53-5.53,2.06-9.91-6.96-.92-9.36,6.41-1.72,13.49.05,19.67-2.37-.57,2.99-2.32,5.74-4.78,7.52Z"/>
          <path class="cls-3" d="M98.73,31.47c-3.15,0-6.57-1.14-8.03-3.4-.74-1.15-.9-2.77-.41-4.11.24-.66.62-1.2,1.09-1.6-1.77-1.12-3.1-2.37-3.97-3.75-.41-.65-.71-1.3-.9-1.95h0l-.18-.63h.03c-.32-1.82.16-3.68,1.39-5.29,2.37-3.11,6.98-4.95,12.36-4.95.07,0,.14,0,.21,0,.78,0,1.69.06,2.69.12,5.09.29,12.77.73,16.05-4.54l.85-1.37.33,1.57c.91,4.3-.64,8.43-4.5,12.03,2.15.51,7.81,2.25,10.63,7.02l.96,1.63-1.76-.7c-6.68-2.64-14.72,3.32-19.52,6.88-1.67,1.24-2.87,2.13-3.69,2.44-1.07.4-2.34.6-3.66.6ZM87.76,16.31c.15.53.4,1.08.75,1.62.91,1.44,2.42,2.75,4.5,3.9l1.34.74-1.46.44c-.84.25-1.22.99-1.37,1.41-.36.97-.25,2.13.29,2.96,1.67,2.6,7.07,3.45,10.15,2.29.64-.24,1.91-1.18,3.37-2.27,4.6-3.41,12.03-8.93,18.91-7.58-3.35-3.91-9.11-5.13-9.87-5.15v-.58s-.45-.56-.45-.56c2.65-2.19,5.57-5.65,5.3-10.16-4.01,4.54-11.29,4.12-16.25,3.83-.98-.06-1.87-.11-2.63-.11-4.96-.01-9.41,1.66-11.53,4.44-1.14,1.49-1.49,3.15-1.03,4.78l-.52.15.52-.15ZM98.37,29.05c-1,0-1.85-.26-2.53-.79-1.7-1.32-1.95-4.18-.71-7.48-1.39.14-2.76-.28-3.84-1.23-1.43-1.26-2.09-3.23-1.67-5.01.3-1.27,1.41-3.57,5.51-4.66,2.98-.8,6.12-.86,9.15-.92,3.7-.07,7.19-.14,10.45-1.42l1.09-.43-.22,1.15c-.48,2.49-1.73,4.82-3.52,6.62,2.53.19,5.66,1.5,8.1,2.71l2.21,1.1-2.47.12c-3.51.18-6.41,1.4-9.68,4.08-4.95,4.06-9.04,6.16-11.88,6.16ZM97.49,18.71l-.68,1.44c-1.49,3.17-1.56,6.02-.17,7.1.75.59,3.9,1.94,12.79-5.35,2.73-2.24,5.32-3.55,8.14-4.1-3.19-1.38-5.76-1.93-7.21-1.52l-3.5.99,2.95-2.14c2.02-1.47,3.53-3.61,4.25-5.99-3.15.98-6.5,1.05-9.75,1.11-2.95.06-6.01.12-8.84.88-2.55.68-4.18,2-4.58,3.71-.31,1.33.18,2.8,1.26,3.75,1.07.94,2.47,1.19,3.85.68l1.49-.55Z"/>
        </g>
        <path class="cls-3" d="M179.07,29.84c-.06,0-.12,0-.18,0-3.19-.07-5.91-1.91-7.64-5.18-1.53-2.88-1.72-6.28-.54-9.58,1.57-4.39,5.35-8.03,10.62-10.22,12.54-5.23,26.03,2.22,35.08,8.27.3.2.38.6.18.9-.2.3-.6.38-.9.18-8.8-5.89-21.89-13.14-33.86-8.15-4.93,2.06-8.45,5.42-9.9,9.47-1.06,2.95-.89,5.98.46,8.54,1.51,2.84,3.83,4.43,6.53,4.49,2.61.03,5.23-1.36,6.51-3.52,1.04-1.75,1.02-3.73-.04-5.55-.95-1.64-3.2-2.82-5.02-1.98-.84.39-1.44,1.37-1.49,2.44-.02.42.02,1.45.91,1.98.31.18.41.58.23.89-.18.31-.58.41-.89.23-1.04-.62-1.61-1.8-1.54-3.16.08-1.56.96-2.96,2.24-3.55,2.54-1.18,5.45.38,6.69,2.5,1.31,2.25,1.32,4.68.03,6.86-1.48,2.51-4.47,4.16-7.47,4.16Z"/>
        <path class="cls-3" d="M150.91,29.84c-3.01,0-5.99-1.65-7.47-4.16-1.28-2.18-1.27-4.61.03-6.86,1.23-2.12,4.14-3.68,6.69-2.5,1.28.59,2.16,1.99,2.24,3.55.07,1.36-.51,2.54-1.54,3.16-.31.18-.7.08-.89-.23-.18-.31-.08-.7.23-.89.89-.53.93-1.56.91-1.98-.05-1.07-.65-2.05-1.49-2.44-1.82-.84-4.07.34-5.02,1.98-1.06,1.82-1.07,3.8-.04,5.55,1.28,2.17,3.9,3.55,6.51,3.52,2.71-.06,5.03-1.66,6.53-4.49,1.36-2.55,1.52-5.59.46-8.54-1.45-4.05-4.96-7.41-9.9-9.47-11.97-4.98-25.06,2.26-33.86,8.15-.3.2-.7.12-.9-.18-.2-.3-.12-.7.18-.9,9.05-6.05,22.54-13.5,35.08-8.27,5.27,2.2,9.05,5.83,10.62,10.22,1.18,3.3.99,6.7-.54,9.58-1.74,3.27-4.45,5.11-7.64,5.18-.06,0-.12,0-.19,0Z"/>
        <path class="cls-1" d="M210.72,1.34c4.13,6.64,14.39,4.77,19.3,4.73,12.3-.11,18.88,9.72,7.64,15.95,2.04.62,2.6,3.54,1.44,5.33-1.94,3.01-7.72,3.75-10.92,2.54-2.99-1.13-14.39-12.98-23.67-9.31,3.41-5.76,11.4-7.04,11.52-6.94-3.73-3.08-6.39-7.25-5.32-12.31Z"/>
        <path class="cls-1" d="M119.26,1.34c-4.13,6.64-14.39,4.77-19.3,4.73-12.3-.11-18.88,9.72-7.64,15.95-2.04.62-2.6,3.54-1.44,5.33,1.94,3.01,7.72,3.75,10.92,2.54,2.99-1.13,14.39-12.98,23.67-9.31-3.41-5.76-11.4-7.04-11.52-6.94,3.73-3.08,6.39-7.25,5.32-12.31Z"/>
        <path class="cls-3" d="M239.1,28c-.36,0-.65-.29-.65-.65s.29-.65.65-.65c3.01,0,5.5-1.3,6.05-3.17.49-1.64-.65-3.5-3.11-5.09-.3-.19-.39-.6-.19-.9.2-.3.6-.38.9-.19,2.98,1.93,4.31,4.32,3.65,6.55-.72,2.45-3.65,4.09-7.29,4.09Z"/>
        <path class="cls-3" d="M90.88,28c-3.64,0-6.57-1.64-7.29-4.09-.66-2.23.67-4.62,3.65-6.55.3-.19.7-.11.9.19.19.3.11.7-.19.9-2.46,1.6-3.6,3.45-3.11,5.09.55,1.86,3.04,3.17,6.05,3.17.36,0,.65.29.65.65s-.29.65-.65.65Z"/>
        <g>
          <path class="cls-2" d="M284.94,39.34c24.88-2.57,32.73-19.65,44.37-14.04.69-6.11-15.55-9.53-24.9-7.15,2.99-.76,6.14-6.77,7.95-9.05,5.49-6.94,6.72-5.04,8.48-7.04-9.3-2.85-21.75,5-31.23,11.17-25.19,16.4-25.38,14.58-42,17.78-3.82.73-7.73,1.41-10.12,4.81,2.62-3.72,28.6,5.48,47.45,3.53Z"/>
          <path class="cls-3" d="M279.23,40.26c-8.62,0-17.95-1.63-25.73-2.98-7.44-1.3-14.46-2.52-15.47-1.1,0,0,0,0,0,0h0c-.21.29-.61.36-.9.16-.29-.21-.36-.61-.16-.9h0s0,0,0,0c2.49-3.53,6.43-4.28,10.24-5.01l.29-.05c2.22-.43,4.15-.76,5.89-1.07,11.17-1.95,14.17-2.48,35.88-16.61,8.72-5.68,21.91-14.27,31.78-11.25.21.06.37.23.43.44.06.21,0,.44-.14.6-.7.8-1.36,1.07-2.05,1.37-1.22.52-2.9,1.22-6.41,5.65-.44.56-.97,1.35-1.58,2.27-1.16,1.75-2.5,3.75-3.93,5.19,7.43-.88,16.88.97,20.71,4.3,1.41,1.23,2.06,2.65,1.9,4.11-.02.21-.15.39-.33.49-.18.1-.4.11-.59.02-5.54-2.67-10.24.12-16.73,4-6.59,3.93-14.79,8.81-27.29,10.11h0c-1.87.19-3.81.28-5.78.28ZM284.94,39.34h.01-.01ZM240.73,34.26c2.8,0,7.07.71,12.98,1.74,9.49,1.65,21.3,3.71,31.16,2.69h0c12.22-1.26,20.29-6.07,26.76-9.93,6.23-3.71,11.23-6.69,16.97-4.48-.17-.7-.64-1.39-1.4-2.05-4.13-3.6-15.35-5.32-22.64-3.46-.35.09-.7-.12-.79-.47-.09-.35.12-.7.47-.79h0c1.99-.51,4.28-3.95,5.95-6.47.63-.94,1.17-1.76,1.65-2.36,3.71-4.69,5.57-5.47,6.92-6.04.24-.1.45-.19.65-.29-9.17-1.81-21.31,6.09-29.46,11.4-21.93,14.28-24.99,14.81-36.36,16.8-1.73.3-3.65.64-5.87,1.07l-.29.05c-2.81.54-5.5,1.05-7.59,2.6.27-.02.57-.03.87-.03Z"/>
        </g>
        <g>
          <path class="cls-2" d="M45.04,39.34C20.17,36.77,12.32,19.69.67,25.3c-.69-6.11,15.55-9.53,24.9-7.15-2.99-.76-6.14-6.77-7.95-9.05-5.49-6.94-6.72-5.04-8.48-7.04,9.3-2.85,21.75,5,31.23,11.17,25.19,16.4,25.38,14.58,42,17.78,3.82.73,7.73,1.41,10.12,4.81-2.62-3.72-28.6,5.48-47.45,3.53Z"/>
          <path class="cls-3" d="M50.76,40.26c-1.98,0-3.91-.09-5.78-.28-12.51-1.29-20.71-6.18-27.29-10.11-6.5-3.87-11.19-6.67-16.73-4-.19.09-.41.09-.59-.02-.18-.1-.31-.29-.33-.49-.17-1.46.49-2.88,1.89-4.11,3.83-3.34,13.29-5.18,20.71-4.3-1.43-1.43-2.77-3.44-3.93-5.19-.61-.92-1.14-1.71-1.58-2.27-3.51-4.43-5.18-5.13-6.41-5.65-.69-.29-1.35-.57-2.05-1.37-.15-.16-.2-.39-.14-.6.06-.21.22-.38.43-.44,9.87-3.02,23.05,5.56,31.78,11.25,21.71,14.14,24.71,14.66,35.88,16.61,1.74.3,3.67.64,5.89,1.07l.29.05c3.81.73,7.75,1.49,10.24,5.01,0,0,0,0,0,0,.21.29.14.7-.16.9-.29.2-.7.14-.9-.16,0,0,0,0,0,0-1.01-1.42-8.03-.19-15.47,1.1-7.78,1.36-17.12,2.98-25.73,2.98ZM45.11,38.7c9.87,1.02,21.67-1.04,31.16-2.69,6.56-1.15,11.1-1.9,13.86-1.71-2.09-1.55-4.78-2.07-7.59-2.6l-.29-.05c-2.22-.43-4.14-.76-5.87-1.07-11.37-1.99-14.43-2.52-36.36-16.8C31.87,8.46,19.74.55,10.57,2.36c.2.1.41.19.65.29,1.35.57,3.21,1.35,6.92,6.04.48.6,1.02,1.41,1.64,2.36,1.67,2.51,3.96,5.96,5.95,6.47,0,0,0,0,0,0,.35.09.56.44.47.79-.09.35-.45.55-.79.47-7.3-1.85-18.51-.14-22.64,3.46-.76.66-1.22,1.35-1.4,2.05,5.75-2.21,10.74.76,16.97,4.48,6.48,3.86,14.54,8.67,26.76,9.93h0Z"/>
        </g>
        <path class="cls-3" d="M253.02,32.8c-.34,0-.63-.27-.65-.61-.02-.36.26-.66.61-.68,23.88-1.25,28.11-3.56,40.68-10.43,1.71-.93,3.56-1.95,5.64-3.05.31-.17.71-.05.88.27.17.32.05.71-.27.88-2.07,1.1-3.93,2.12-5.63,3.04-12.76,6.97-17.06,9.32-41.23,10.59-.01,0-.02,0-.03,0Z"/>
        <path class="cls-3" d="M76.97,32.8s-.02,0-.03,0c-24.17-1.27-28.47-3.62-41.23-10.59-1.7-.93-3.56-1.94-5.63-3.05-.32-.17-.44-.56-.27-.88s.56-.44.88-.27c2.08,1.11,3.94,2.12,5.64,3.05,12.57,6.86,16.8,9.18,40.68,10.43.36.02.63.32.61.68-.02.35-.3.61-.65.61Z"/>
        <path class="cls-3" d="M298.45,24.38c-.05,0-.1,0-.16-.02-.35-.09-.56-.44-.47-.79.39-1.55.81-2.61,1.12-3.38.18-.45.38-.95.36-1.1-.15-.14-1.22-.37-2.45-.64-1.02-.22-2.36-.51-4.08-.95-.35-.09-.56-.44-.47-.79.09-.35.43-.56.79-.47,1.71.43,3.03.72,4.04.94,2.16.47,2.97.65,3.33,1.33.31.59.06,1.21-.31,2.15-.29.74-.7,1.75-1.06,3.21-.07.29-.34.49-.63.49Z"/>
        <path class="cls-3" d="M31.53,24.38c-.29,0-.55-.2-.63-.49-.36-1.46-.77-2.47-1.06-3.21-.37-.94-.62-1.57-.31-2.15.36-.68,1.17-.86,3.33-1.33,1.01-.22,2.34-.51,4.04-.94.35-.08.7.12.79.47.09.35-.12.7-.47.79-1.73.44-3.06.73-4.09.95-1.24.27-2.3.5-2.47.69,0,.09.21.6.38,1.05.31.77.73,1.83,1.12,3.38.09.35-.13.7-.47.78-.05.01-.1.02-.16.02Z"/>
        <path class="cls-3" d="M289.29,28.81c-.13,0-.27-.04-.38-.12-.29-.21-.35-.62-.14-.9,1.1-1.51,2.08-3.13,2.92-4.8l-6.03-.56c-.36-.03-.62-.35-.59-.7.03-.36.35-.62.7-.59l6.95.64c.21.02.4.14.5.32s.11.41.03.6c-.96,2.05-2.12,4.02-3.45,5.85-.13.17-.32.27-.52.27Z"/>
        <path class="cls-3" d="M40.7,28.81c-.2,0-.4-.09-.52-.27-1.33-1.83-2.49-3.8-3.44-5.85-.09-.19-.08-.41.03-.6s.29-.3.5-.32l6.95-.64c.35-.03.67.23.7.59s-.23.67-.59.7l-6.02.56c.84,1.68,1.82,3.29,2.92,4.8.21.29.15.69-.14.9-.12.08-.25.12-.38.12Z"/>
        <path class="cls-3" d="M278.03,34.69c-.13,0-.27-.04-.38-.13-.29-.21-.35-.62-.14-.91,1.39-1.88,2.46-3.24,3.25-4.24.54-.69,1.03-1.31,1.29-1.69-.15-.02-.32-.03-.48-.05-1.13-.1-3.03-.27-5.56-1.29-.33-.13-.49-.51-.36-.84.13-.33.51-.49.84-.36,2.36.95,4.13,1.11,5.19,1.2.91.08,1.52.14,1.76.7.28.65-.13,1.18-1.67,3.13-.78.99-1.84,2.34-3.22,4.2-.13.17-.32.26-.52.26ZM282.42,27.8h.01-.01Z"/>
        <path class="cls-3" d="M51.96,34.69c-.2,0-.39-.09-.52-.26-1.38-1.87-2.44-3.22-3.22-4.2-1.54-1.95-1.95-2.47-1.67-3.13.24-.57.85-.62,1.76-.7,1.06-.1,2.84-.26,5.19-1.2.33-.13.71.03.84.36.13.33-.03.71-.36.84-2.53,1.02-4.43,1.19-5.56,1.29-.16.01-.33.03-.48.05.26.38.75,1,1.29,1.69.78.99,1.86,2.35,3.25,4.24.21.29.15.69-.14.91-.12.09-.25.13-.38.13Z"/>
        <path class="cls-3" d="M268.97,33.75c-.16,0-.32-.06-.44-.17-.26-.24-.28-.65-.03-.91,1.06-1.13,2.07-1.99,3.02-2.57-.72-.34-1.68-.89-2.92-1.81-.29-.21-.35-.62-.13-.91.21-.29.62-.34.91-.13,1.51,1.13,2.81,1.84,3.86,2.11.4.1.6.32.61.65,0,.29-.29.6-.56.68-1.11.36-2.4,1.32-3.83,2.86-.13.14-.3.21-.47.21Z"/>
        <path class="cls-3" d="M61.02,33.75c-.17,0-.35-.07-.47-.21-1.43-1.53-2.72-2.49-3.83-2.86-.27-.09-.57-.4-.56-.68,0-.29.33-.58.61-.65,1.04-.27,2.34-.98,3.86-2.11.29-.21.69-.15.91.13.21.29.15.69-.13.91-1.24.93-2.21,1.48-2.92,1.81.96.58,1.97,1.43,3.02,2.56.24.26.23.67-.03.91-.12.12-.28.17-.44.17Z"/>
        <path class="cls-3" d="M256.39,26.24c-3.68,0-7.34-.44-10.89-1.75-.34-.12-.51-.5-.38-.83.13-.34.49-.51.83-.38,6.83,2.54,13.91,1.69,21.4.8,1.58-.19,3.16-.38,4.74-.53.35-.03.67.23.71.58s-.23.67-.58.71c-1.57.15-3.15.34-4.72.53-3.67.44-7.4.88-11.11.88Z"/>
        <path class="cls-3" d="M73.59,26.24c-3.71,0-7.44-.44-11.11-.88-1.57-.19-3.14-.37-4.72-.53-.36-.03-.62-.35-.58-.71.04-.36.35-.61.71-.58,1.58.15,3.16.34,4.74.53,7.49.89,14.57,1.73,21.4-.8.33-.12.71.05.83.38s-.05.71-.38.83c-3.55,1.32-7.21,1.75-10.89,1.75Z"/>
        <path class="cls-3" d="M264.5,19.73c-6.85,0-13.91-1.01-21.56-3.01-.35-.09-.55-.44-.46-.79.09-.35.44-.55.79-.46,15.49,4.07,28.52,3.96,42.25-.35.34-.11.7.08.81.42.11.34-.08.7-.42.81-7.18,2.25-14.17,3.38-21.41,3.38Z"/>
        <path class="cls-3" d="M65.49,19.73c-7.24,0-14.23-1.12-21.41-3.38-.34-.11-.53-.47-.42-.81.11-.34.46-.53.81-.42,13.73,4.3,26.76,4.41,42.25.35.35-.09.7.12.79.46.09.35-.12.7-.46.79-7.65,2.01-14.71,3.01-21.56,3.01Z"/>
        <g>
          <path class="cls-5" d="M230.02,6.44c-4.91.04-15.17,1.91-19.3-4.73-1.07,5.06,1.59,9.24,5.32,12.31-.12-.1-8.12,1.18-11.52,6.94,9.28-3.67,20.68,8.18,23.67,9.31,3.2,1.2,8.98.47,10.92-2.54,1.15-1.8.6-4.71-1.44-5.33,3.21-1.78,4.97-3.85,5.55-5.9-.04,0-.07-.02-.11-.03.04,0,.07.02.11.03,1.47-5.13-4.4-10.13-13.19-10.05ZM234.12,19.87c3.42,7.27-.06,13.64-13.62,2.53-3.04-2.49-6.1-4.03-10.06-4.23,2.39-1.19,7.06-3.26,9.71-2.51-2.46-1.79-4.21-4.53-4.78-7.52,6.18,2.42,13.26.65,19.67,2.37,8.98,2.4,4.61,11.42-.92,9.36Z"/>
          <path class="cls-3" d="M231.62,31.47c-1.32,0-2.6-.2-3.66-.6-.81-.31-2.02-1.2-3.69-2.44-4.8-3.56-12.84-9.52-19.52-6.88l-1.76.7.96-1.63c2.82-4.77,8.48-6.51,10.63-7.02-3.85-3.6-5.41-7.74-4.5-12.03l.33-1.57.85,1.37c3.28,5.27,10.97,4.83,16.05,4.54,1-.06,1.91-.11,2.69-.12h0c5.43-.05,10.18,1.8,12.58,4.95,1.38,1.81,1.82,3.91,1.24,5.92h0s0,0,0,0l-.17.6h-.03c-.73,1.87-2.32,3.61-4.67,5.09.48.4.85.94,1.09,1.6.49,1.34.33,2.95-.41,4.11-1.45,2.26-4.87,3.4-8.03,3.4ZM208.32,19.6c6.22,0,12.61,4.74,16.72,7.79,1.46,1.09,2.73,2.02,3.37,2.27,3.08,1.16,8.47.31,10.15-2.29.53-.83.64-1.99.28-2.96-.15-.42-.53-1.15-1.37-1.41l-1.46-.44,1.34-.74c2.85-1.58,4.66-3.48,5.24-5.51l.57.16-.57-.16c.47-1.64.11-3.29-1.03-4.78-2.09-2.75-6.43-4.44-11.34-4.44-.06,0-.13,0-.19,0h0c-.76,0-1.65.06-2.63.11-4.96.28-12.24.7-16.25-3.83-.27,4.51,2.65,7.97,5.3,10.16h0s-.41.5-.41.5l-.04.64c-.76.02-6.51,1.24-9.87,5.15.72-.14,1.45-.21,2.18-.21ZM231.98,29.05c-2.84,0-6.93-2.1-11.88-6.16-3.27-2.68-6.17-3.9-9.68-4.08l-2.47-.12,2.21-1.1c2.44-1.22,5.57-2.52,8.1-2.71-1.79-1.8-3.04-4.13-3.52-6.62l-.22-1.15,1.09.43c3.26,1.28,6.75,1.35,10.45,1.42,3.03.06,6.17.12,9.15.92,4.1,1.1,5.21,3.39,5.51,4.66.42,1.78-.24,3.75-1.67,5.01-1.08.95-2.46,1.37-3.84,1.23,1.24,3.29.99,6.15-.71,7.48-.68.53-1.52.79-2.53.79ZM212.78,17.8c2.82.54,5.4,1.86,8.14,4.1,8.88,7.28,12.04,5.93,12.79,5.35,1.39-1.08,1.31-3.93-.17-7.1l-.68-1.44,1.49.55c1.38.52,2.78.26,3.85-.68,1.08-.95,1.57-2.42,1.26-3.75-.4-1.71-2.03-3.02-4.58-3.71-2.83-.76-5.89-.82-8.84-.88-3.25-.07-6.59-.13-9.75-1.11.72,2.39,2.23,4.53,4.25,5.99l2.95,2.14-3.5-.99c-1.45-.41-4.01.14-7.21,1.52Z"/>
        </g>
      </g>
    </g>
  </g>
</svg>