<svg width="386" height="201" viewBox="0 0 386 201" fill="none" xmlns="http://www.w3.org/2000/svg">
<path d="M27.2968 38.2611C26.0039 37.5576 24.8535 37.4815 24.5208 37.9284C24.2451 38.2991 24.5018 39.0787 24.5874 39.3354C24.787 39.9438 25.1102 40.3336 25.1388 40.3717C25.7852 41.1702 34.332 57.4747 39.5894 76.0133C46.2633 99.5241 47.5467 123.7 47.8414 130.659L52.2812 133.036C52.0435 115.515 49.5432 91.9375 40.0172 66.0405C36.1478 55.5353 31.7271 46.266 27.2873 38.2611H27.2968Z" fill="#99A982"/>
<path d="M52.7756 133.835L47.3851 130.945V130.669C46.9002 119.46 45.189 97.4706 39.133 76.1274C33.9993 58.0356 25.5095 41.579 24.768 40.6473C24.6729 40.5333 24.3402 40.1054 24.131 39.4685C23.9504 38.9266 23.7602 38.1375 24.131 37.6336C24.6444 36.9301 26.0134 37.0157 27.5155 37.8333L27.6391 37.8998L27.7056 38.0234C32.6588 46.9505 36.9559 56.3244 40.464 65.8694C48.3168 87.2126 52.4523 109.801 52.7565 133.027V133.835H52.7756ZM48.3073 130.365L51.7963 132.238C51.4066 109.411 47.29 87.1935 39.5704 66.2021C36.0908 56.7427 31.8412 47.4638 26.9356 38.6128C25.7567 38.0044 24.9866 38.0804 24.8821 38.2135C24.8821 38.2135 24.7585 38.3942 25.0152 39.1928C25.1768 39.6871 25.4335 40.0104 25.481 40.0674C26.2321 40.9991 34.8264 57.5698 40.0267 75.8897C46.0636 97.1474 47.7939 119.042 48.2883 130.374L48.3073 130.365Z" fill="#404A2B"/>
<path d="M358.872 46.8174C360.165 46.1139 361.315 46.0378 361.648 46.4846C361.924 46.8554 361.667 47.635 361.581 47.8917C361.382 48.5001 361.059 48.8899 361.03 48.9279C360.384 49.7265 351.837 66.031 346.579 84.5696C339.906 108.08 338.622 132.257 338.327 139.216L333.888 141.593C334.125 124.071 336.626 100.494 346.152 74.5968C350.021 64.0916 354.442 54.8223 358.882 46.8174H358.872Z" fill="#99A982"/>
<path d="M333.393 142.391V141.583C333.717 118.357 337.852 95.7688 345.695 74.4256C349.203 64.8806 353.501 55.5067 358.454 46.5797L358.52 46.4561L358.644 46.3895C360.155 45.5719 361.515 45.4959 362.028 46.1899C362.409 46.7033 362.209 47.4828 362.028 48.0342C361.81 48.6997 361.458 49.137 361.391 49.2226C360.659 50.1448 352.17 66.6014 347.026 84.6932C340.97 106.027 339.269 128.017 338.784 139.235V139.51L333.374 142.401L333.393 142.391ZM359.224 47.1691C354.318 56.0201 350.069 65.2989 346.589 74.7584C338.869 95.7498 334.753 117.958 334.363 140.794L337.852 138.921C338.346 127.589 340.077 105.694 346.114 84.4365C351.314 66.1165 359.908 49.5458 360.659 48.6237C360.697 48.5856 360.964 48.2529 361.135 47.7395C361.401 46.9504 361.277 46.7698 361.268 46.7603C361.173 46.6272 360.393 46.5607 359.214 47.1596L359.224 47.1691Z" fill="#404A2B"/>
<path d="M371.868 19.1806L371.098 19.1236C368.759 36.065 364.481 54.7653 359.547 71.6307C356.876 80.7669 354.014 89.3517 351.162 96.8147C349.27 101.787 347.397 106.246 345.591 110.048C344.735 111.845 343.899 113.49 343.09 114.964C341.902 117.131 340.619 119.261 339.269 121.333C336.863 125.05 334.22 128.625 331.378 132.048C320.882 144.758 307.762 155.454 294.167 164.124C292.228 165.379 290.289 166.567 288.34 167.718C284.347 170.095 280.325 172.291 276.351 174.306C274.497 175.257 272.663 176.15 270.847 177.025C268.337 178.213 265.846 179.354 263.393 180.4C260.665 181.569 257.974 182.663 255.35 183.661C237.591 190.477 222.932 193.273 217.361 192.065C200.97 188.5 207.34 166.739 228.645 168.516C187.442 158.002 186.035 213.038 234.426 194.518C242.659 191.371 250.549 188.205 258.098 184.963C260.826 183.785 263.517 182.596 266.16 181.398C268.755 180.229 271.294 179.041 273.803 177.843C275.762 176.902 277.682 175.951 279.584 174.991C283.871 172.842 287.997 170.636 292.009 168.355C294.12 167.166 296.173 165.959 298.198 164.723C311.271 156.785 322.803 147.972 332.747 137.733C335.285 135.137 337.709 132.437 340.029 129.642C342.777 126.343 345.372 122.902 347.834 119.299C350.553 115.325 353.092 111.161 355.449 106.788C357.551 102.899 359.509 98.8492 361.306 94.6186C365.365 85.1971 369.111 75.6711 371.735 64.2913C372.286 45.0682 371.982 34.3823 371.878 19.1711L371.868 19.1806Z" fill="#99A982"/>
<path d="M216.343 198.787C209.441 198.787 203.927 196.686 200.543 192.531C196.626 187.73 196.369 181.066 199.896 175.551C205.011 167.547 215.801 164.742 228.759 168.05C228.997 168.108 229.149 168.345 229.111 168.592C229.073 168.84 228.864 169.011 228.598 168.992C216.961 168.012 209.65 174.335 208.69 180.78C207.901 186.028 211.343 190.278 217.465 191.609C222.352 192.674 236.232 190.506 255.179 183.233C257.689 182.282 260.389 181.18 263.203 179.982C265.513 178.993 267.947 177.89 270.638 176.607C272.568 175.685 274.364 174.791 276.133 173.897C280.221 171.815 284.242 169.61 288.092 167.318C290.156 166.102 292.057 164.923 293.901 163.734C308.894 154.17 321.376 143.408 331.007 131.753C333.878 128.302 336.521 124.708 338.869 121.086C340.229 119.004 341.512 116.874 342.682 114.745C343.48 113.309 344.317 111.665 345.172 109.858C346.969 106.093 348.833 101.644 350.734 96.6625C353.567 89.2376 356.467 80.5482 359.11 71.5166C364.358 53.5674 368.455 34.9527 370.642 19.0855C370.68 18.8383 370.908 18.6577 371.146 18.6767L371.916 18.7338C372.163 18.7528 372.353 18.9524 372.353 19.2091C372.372 22.3749 372.4 25.3506 372.438 28.2408C372.553 39.44 372.648 49.1181 372.22 64.3483C369.691 75.3669 366.202 84.5031 361.753 94.8467C359.994 98.9917 358.016 103.099 355.877 107.054C353.539 111.398 350.962 115.619 348.234 119.612C345.838 123.13 343.204 126.629 340.409 129.994C338.071 132.799 335.608 135.537 333.099 138.113C323.516 147.981 312.183 156.832 298.455 165.17C296.544 166.339 294.51 167.537 292.247 168.811C288.245 171.083 284.062 173.317 279.802 175.456C277.891 176.417 275.971 177.377 274.013 178.309C271.598 179.468 269.021 180.666 266.36 181.874C263.935 182.976 261.302 184.136 258.288 185.439C251.091 188.529 243.334 191.656 234.597 195.003C227.904 197.56 221.705 198.834 216.343 198.834V198.787ZM218.587 167.642C210.601 167.642 204.212 170.56 200.695 176.065C197.396 181.227 197.634 187.454 201.284 191.932C207.026 198.977 219.347 199.775 234.254 194.071C242.982 190.734 250.721 187.616 257.908 184.526C260.912 183.224 263.545 182.064 265.96 180.961C268.613 179.763 271.18 178.565 273.594 177.405C275.553 176.474 277.464 175.513 279.375 174.553C283.615 172.424 287.788 170.199 291.772 167.936C294.025 166.662 296.04 165.474 297.951 164.314C311.613 156.015 322.879 147.211 332.405 137.4C334.895 134.843 337.339 132.133 339.668 129.338C342.444 126.001 345.058 122.531 347.445 119.032C350.154 115.078 352.711 110.875 355.031 106.559C357.151 102.633 359.11 98.5544 360.868 94.4284C365.299 84.1323 368.759 75.0436 371.269 64.1867C371.697 49.0706 371.592 39.402 371.478 28.2122C371.45 25.6929 371.431 23.1165 371.402 20.407C369.168 36.046 365.137 54.2233 360.013 71.7542C357.36 80.8049 354.461 89.5228 351.609 96.9667C349.707 101.977 347.825 106.445 346.019 110.239C345.153 112.064 344.307 113.718 343.499 115.182C342.32 117.321 341.027 119.479 339.658 121.58C337.291 125.241 334.629 128.853 331.739 132.342C322.051 144.074 309.493 154.902 294.415 164.514C292.561 165.712 290.65 166.891 288.577 168.117C284.708 170.418 280.668 172.633 276.561 174.724C274.792 175.628 272.986 176.512 271.046 177.443C268.337 178.727 265.894 179.83 263.574 180.828C260.75 182.035 258.041 183.138 255.512 184.098C238.865 190.487 223.493 193.881 217.256 192.521C210.611 191.076 206.874 186.408 207.749 180.628C208.633 174.715 214.47 168.878 223.892 168.041C222.057 167.775 220.289 167.642 218.587 167.642Z" fill="#404A2B"/>
<path d="M156.364 168.516C177.659 166.739 184.029 188.5 167.648 192.065C162.087 193.273 147.427 190.487 129.659 183.661C127.035 182.663 124.354 181.569 121.616 180.4C119.163 179.345 116.672 178.214 114.162 177.025C112.346 176.16 110.511 175.257 108.658 174.306C104.684 172.281 100.662 170.085 96.6693 167.718C94.7204 166.567 92.781 165.37 90.8415 164.124C77.2465 155.454 64.1269 144.758 53.6312 132.048C50.7886 128.625 48.1457 125.05 45.7404 121.333C44.3904 119.261 43.107 117.131 41.9186 114.964C41.101 113.49 40.2644 111.845 39.4182 110.048C37.6119 106.246 35.7295 101.787 33.8472 96.8147C30.9951 89.3517 28.1335 80.7669 25.462 71.6307C20.661 55.2026 16.4779 38.3182 14.1011 21.719C14.2342 21.719 13.968 21.719 14.1011 21.719C13.8254 35.3425 14.3008 47.3879 13.6828 63.5022C16.3068 74.8821 19.6532 85.1971 23.7127 94.6186C25.5095 98.8492 27.468 102.899 29.569 106.788C31.9267 111.161 34.4556 115.325 37.1841 119.299C39.6369 122.902 42.2418 126.343 44.9893 129.642C47.3186 132.437 49.7428 135.128 52.2717 137.733C62.2065 147.972 73.748 156.775 86.8201 164.723C88.8451 165.959 90.9081 167.166 93.0091 168.355C97.0116 170.627 101.147 172.842 105.435 174.991C107.346 175.951 109.257 176.902 111.215 177.843C113.715 179.041 116.263 180.229 118.859 181.398C121.502 182.596 124.183 183.785 126.921 184.963C134.479 188.205 142.369 191.371 150.593 194.518C198.984 213.038 197.586 158.002 156.373 168.516H156.364Z" fill="#99A982"/>
<path d="M168.666 198.787C163.304 198.787 157.105 197.522 150.412 194.955C141.675 191.618 133.918 188.491 126.721 185.391C123.726 184.098 121.083 182.929 118.649 181.826C115.997 180.628 113.43 179.43 110.996 178.27C109.038 177.329 107.117 176.369 105.207 175.418C100.957 173.289 96.7644 171.055 92.762 168.773C90.5088 167.499 88.4838 166.311 86.5539 165.132C72.8258 156.794 61.4935 147.943 51.9104 138.075C49.4006 135.499 46.9383 132.77 44.5996 129.956C41.8045 126.591 39.1711 123.101 36.7753 119.574C34.0468 115.591 31.4799 111.37 29.1317 107.016C27.0021 103.061 25.0247 98.9537 23.2564 94.8087C19.1684 85.3017 15.7839 74.806 13.198 63.6162C13.198 63.5782 13.1885 63.5307 13.1885 63.4927C13.5592 53.9571 13.5402 45.8382 13.5212 37.9854C13.5117 32.5379 13.4927 27.3851 13.6068 21.8996C13.5878 21.8521 13.5688 21.795 13.5688 21.7285C13.5688 21.4813 13.7969 21.2721 14.0536 21.2531C14.0726 21.2531 14.0916 21.2531 14.1202 21.2531C14.3673 21.2721 14.605 21.4813 14.5955 21.7285C14.5955 21.7665 14.5955 21.8045 14.5765 21.8425C16.668 36.3502 20.3662 52.5976 25.8993 71.4975C28.5423 80.5292 31.4419 89.2186 34.275 96.6435C36.1669 101.635 38.0397 106.074 39.8366 109.839C40.6922 111.636 41.5288 113.281 42.3274 114.726C43.4967 116.855 44.7802 118.985 46.1397 121.067C48.4879 124.699 51.1309 128.283 54.002 131.734C63.6325 143.389 76.1152 154.151 91.0982 163.715C92.9521 164.913 94.8535 166.083 96.907 167.299C100.757 169.591 104.779 171.796 108.867 173.878C110.626 174.772 112.432 175.666 114.362 176.588C117.062 177.862 119.486 178.964 121.796 179.963C124.61 181.17 127.31 182.263 129.82 183.214C148.768 190.487 162.657 192.655 167.534 191.59C173.647 190.259 177.089 186.009 176.309 180.761C175.34 174.325 168.038 168.003 156.392 168.973C156.145 168.982 155.926 168.821 155.888 168.573C155.85 168.326 156.002 168.098 156.24 168.031C169.198 164.723 179.989 167.528 185.103 175.532C188.621 181.047 188.374 187.711 184.457 192.512C181.072 196.667 175.558 198.768 168.656 198.768L168.666 198.787ZM14.1582 63.4546C16.7251 74.5683 20.081 84.9879 24.15 94.4284C25.8993 98.5544 27.8673 102.633 29.9873 106.559C32.3165 110.875 34.8644 115.078 37.5739 119.032C39.9601 122.531 42.5746 126.001 45.3506 129.338C47.6703 132.124 50.1136 134.843 52.6139 137.4C62.1399 147.211 73.4057 156.015 87.0673 164.314C88.9782 165.484 91.0032 166.672 93.2468 167.936C97.2397 170.199 101.413 172.433 105.653 174.553C107.555 175.513 109.475 176.464 111.434 177.405C113.858 178.565 116.425 179.763 119.068 180.961C121.502 182.064 124.135 183.233 127.12 184.526C134.307 187.616 142.046 190.734 150.774 194.071C165.681 199.775 178.011 198.977 183.744 191.932C187.394 187.454 187.623 181.227 184.333 176.065C180.065 169.391 171.584 166.52 161.136 168.041C170.558 168.878 176.395 174.715 177.279 180.628C178.144 186.408 174.408 191.076 167.772 192.521C161.545 193.881 146.172 190.496 129.516 184.098C126.997 183.138 124.287 182.045 121.454 180.828C119.134 179.83 116.691 178.727 113.982 177.443C112.033 176.512 110.236 175.618 108.458 174.724C104.351 172.633 100.31 170.408 96.4412 168.117C94.3781 166.891 92.4672 165.712 90.6039 164.514C75.5353 154.902 62.9766 144.074 53.2889 132.342C50.3988 128.863 47.7274 125.241 45.3696 121.58C44.0006 119.479 42.7077 117.331 41.5288 115.182C40.7207 113.718 39.8746 112.054 39.0094 110.248C37.2031 106.455 35.3207 101.986 33.4193 96.9763C30.5767 89.5323 27.6676 80.8144 25.0152 71.7637C20.1476 55.1265 16.6966 40.5523 14.5099 27.3946C14.4814 30.9122 14.4909 34.3823 14.5004 37.9759C14.5195 45.8192 14.5385 53.9286 14.1772 63.4641L14.1582 63.4546Z" fill="#404A2B"/>
<path d="M263.384 180.4C260.655 181.569 257.965 182.663 255.341 183.661C245.111 178.822 234.625 173.26 228.636 168.516C237.743 169.781 249.703 175.38 263.384 180.4Z" fill="#99A982"/>
<path d="M255.341 184.136C255.274 184.136 255.198 184.117 255.141 184.089C246.547 180.02 234.91 174.087 228.341 168.878C228.17 168.745 228.113 168.516 228.198 168.317C228.284 168.117 228.493 168.003 228.702 168.031C235.31 168.944 243.258 172.072 252.47 175.685C256.035 177.082 259.714 178.527 263.545 179.934C263.726 180.001 263.85 180.172 263.859 180.372C263.859 180.571 263.755 180.742 263.574 180.818C260.75 182.026 258.041 183.129 255.512 184.089C255.455 184.108 255.398 184.117 255.341 184.117V184.136ZM230.461 169.296C237.078 174.116 247.469 179.402 255.36 183.148C257.489 182.34 259.743 181.427 262.091 180.429C258.649 179.145 255.331 177.843 252.118 176.578C243.837 173.327 236.574 170.475 230.461 169.296Z" fill="#404A2B"/>
<path d="M121.625 180.4C124.354 181.569 127.044 182.663 129.668 183.661C139.898 178.822 150.384 173.26 156.373 168.516C147.265 169.781 135.306 175.38 121.625 180.4Z" fill="#99A982"/>
<path d="M129.659 184.136C129.602 184.136 129.544 184.127 129.487 184.108C126.968 183.148 124.259 182.045 121.426 180.837C121.245 180.761 121.131 180.581 121.14 180.391C121.14 180.2 121.273 180.029 121.454 179.953C125.285 178.546 128.974 177.101 132.53 175.704C141.742 172.081 149.69 168.963 156.297 168.041C156.516 168.012 156.715 168.127 156.801 168.326C156.887 168.526 156.83 168.754 156.658 168.887C150.089 174.087 138.462 180.029 129.858 184.098C129.792 184.127 129.725 184.146 129.659 184.146V184.136ZM122.909 180.429C125.257 181.417 127.519 182.33 129.64 183.148C137.54 179.411 147.921 174.116 154.538 169.296C148.425 170.475 141.162 173.327 132.872 176.588C129.659 177.852 126.341 179.155 122.899 180.438L122.909 180.429Z" fill="#404A2B"/>
<path d="M378.599 166.719C361.543 201.61 308.799 206.649 276.332 193.52C271.607 191.609 265.2 188.871 258.507 185.752C261.235 184.574 263.926 183.385 266.569 182.187C291.791 191.124 322.365 197.056 351.304 170.484C374.501 149.179 365.907 124.585 361.715 95.4171C365.774 85.9957 369.121 75.6806 371.744 64.3007C372.695 72.1155 374.216 80.301 376.441 88.9143C382.915 113.946 390.758 141.859 378.608 166.719H378.599Z" fill="#99A982"/>
<path d="M312.668 200.64C299.843 200.64 287.037 198.359 276.152 193.957C272.834 192.617 266.112 189.822 258.298 186.18C258.126 186.104 258.022 185.933 258.022 185.743C258.022 185.553 258.136 185.391 258.307 185.315C261.283 184.032 263.916 182.862 266.359 181.75C266.474 181.703 266.597 181.693 266.711 181.731C292.266 190.782 322.251 196.486 350.972 170.133C370.68 152.031 367.21 131.468 363.179 107.662C362.513 103.717 361.819 99.6382 361.23 95.4837C361.22 95.3981 361.23 95.3126 361.268 95.227C365.337 85.7675 368.702 75.3289 371.269 64.1867C371.317 63.9585 371.535 63.8064 371.754 63.8159C371.982 63.8254 372.172 64.006 372.201 64.2342C373.19 72.2961 374.768 80.5577 376.888 88.7908L377.515 91.196C383.771 115.334 390.863 142.705 379.027 166.919C371.222 182.891 354.993 194.138 333.346 198.587C326.653 199.965 319.656 200.64 312.678 200.64H312.668ZM259.657 185.772C267.044 189.185 273.338 191.799 276.503 193.082C293.16 199.813 314.332 201.525 333.146 197.665C354.508 193.273 370.49 182.216 378.171 166.51C389.855 142.61 382.811 115.42 376.593 91.4432L375.966 89.0379C374.055 81.6415 372.581 74.2261 371.592 66.9437C369.111 77.1447 365.945 86.7277 362.19 95.4837C362.779 99.5812 363.464 103.612 364.12 107.51C368.189 131.591 371.706 152.392 351.618 170.846C322.603 197.484 292.361 191.818 266.578 182.71C264.449 183.67 262.176 184.688 259.657 185.781V185.772Z" fill="#404A2B"/>
<path d="M6.80929 165.921C23.8648 200.812 76.6096 205.85 109.076 192.721C113.801 190.81 120.209 188.072 126.902 184.954C124.173 183.775 121.483 182.587 118.84 181.389C93.6176 190.325 63.0431 196.258 34.1038 169.686C10.9068 148.381 19.5011 123.786 23.6937 94.6185C19.6342 85.1971 16.2878 74.882 13.6638 63.5021C12.7131 71.3169 11.192 79.5024 8.96737 88.1157C2.49311 113.148 -5.35015 141.06 6.79978 165.921H6.80929Z" fill="#99A982"/>
<path d="M72.7402 199.851C65.7526 199.851 58.765 199.176 52.072 197.798C30.4151 193.349 14.1962 182.102 6.39098 166.13C-5.45473 141.906 1.63748 114.545 7.90259 90.3974L8.53005 87.9921C10.6596 79.7591 12.2378 71.4975 13.217 63.4356C13.2455 63.2074 13.4357 63.0268 13.6638 63.0173C13.892 62.9983 14.1011 63.1599 14.1487 63.388C16.7156 74.5302 20.081 84.9689 24.15 94.4284C24.1881 94.5044 24.1976 94.5995 24.1881 94.685C23.5891 98.8396 22.9046 102.918 22.2296 106.863C18.2082 130.669 14.7286 151.233 34.4366 169.334C63.1477 195.687 93.1422 189.993 118.697 180.942C118.811 180.904 118.944 180.904 119.049 180.961C121.483 182.073 124.116 183.233 127.101 184.526C127.272 184.602 127.386 184.764 127.386 184.954C127.386 185.144 127.282 185.315 127.111 185.391C119.315 189.023 112.575 191.818 109.257 193.168C98.3616 197.57 85.5652 199.851 72.7402 199.851ZM13.8159 66.1451C12.8177 73.4179 11.3536 80.8429 9.44272 88.2393L8.81526 90.6446C2.59769 114.631 -4.44699 141.811 7.2371 165.712C14.9092 181.408 30.9 192.474 52.2622 196.866C71.0765 200.735 92.2486 199.015 108.905 192.284C112.08 191 118.383 188.376 125.751 184.973C123.232 183.88 120.96 182.872 118.83 181.902C93.0472 191.01 62.8054 196.676 33.7901 170.037C13.7018 151.584 17.2194 130.793 21.2884 106.702C21.9444 102.804 22.6289 98.773 23.2183 94.6755C19.4631 85.9196 16.3068 76.327 13.8159 66.1356V66.1451Z" fill="#404A2B"/>
<path d="M338.584 121.485C336.283 125.107 333.755 128.587 331.036 131.914C328.649 124.081 324.466 116.637 322.308 111.132C317.003 97.5751 313.153 69.7577 325.17 62.6845C318.192 80.4531 332.452 99.0202 337.12 114.944C337.738 117.064 338.232 119.261 338.584 121.485Z" fill="#99A982"/>
<path d="M330.845 132.903L330.589 132.047C329.077 127.075 326.824 122.246 324.837 117.987C323.715 115.581 322.66 113.309 321.871 111.303C316.794 98.3357 312.307 69.7007 324.932 62.2757L326.12 61.5722L325.617 62.8556C320.711 75.3383 326.396 88.1062 331.891 100.456C334.125 105.466 336.226 110.21 337.576 114.811C338.204 116.969 338.698 119.185 339.05 121.409L339.078 121.59L338.983 121.742C336.721 125.307 334.163 128.834 331.397 132.219L330.836 132.913L330.845 132.903ZM324.219 63.9109C314.094 71.8778 317.65 97.9459 322.745 110.961C323.525 112.938 324.571 115.201 325.693 117.597C327.575 121.647 329.705 126.201 331.226 130.935C333.717 127.836 336.017 124.632 338.09 121.39C337.747 119.261 337.263 117.15 336.664 115.087C335.333 110.543 333.241 105.837 331.017 100.855C325.645 88.7812 320.093 76.308 324.219 63.9204V63.9109Z" fill="#99A982"/>
<path d="M331.036 132.39C331.036 132.39 330.978 132.39 330.94 132.39C330.769 132.352 330.627 132.228 330.579 132.067C329.068 127.104 326.814 122.274 324.837 118.015C323.715 115.6 322.65 113.328 321.871 111.322C316.794 98.3548 312.307 69.7197 324.932 62.2948C325.113 62.1902 325.331 62.2092 325.483 62.3423C325.636 62.4754 325.693 62.6846 325.617 62.8747C320.711 75.3574 326.396 88.1252 331.891 100.475C334.125 105.485 336.226 110.229 337.576 114.83C338.204 116.988 338.708 119.213 339.05 121.428C339.069 121.542 339.05 121.656 338.983 121.761C336.721 125.326 334.163 128.853 331.397 132.238C331.302 132.352 331.169 132.409 331.026 132.409L331.036 132.39ZM324.219 63.911C314.094 71.8778 317.65 97.946 322.745 110.961C323.525 112.938 324.571 115.201 325.693 117.597C327.575 121.647 329.695 126.201 331.216 130.926C333.707 127.826 336.008 124.623 338.08 121.381C337.738 119.261 337.263 117.141 336.654 115.078C335.323 110.533 333.232 105.827 331.007 100.846C325.636 88.7717 320.083 76.2986 324.21 63.911H324.219Z" fill="#404A2B"/>
<path d="M296.563 161.814C294.709 163.031 292.855 164.191 290.992 165.313C289.737 165.075 288.473 164.837 287.208 164.609C278.253 162.974 252.394 156.794 229.577 168.611C246.794 153.638 265.285 155.977 283.586 159.19C286.809 159.76 291.42 160.92 296.563 161.814Z" fill="#99A982"/>
<path d="M229.577 169.077C229.425 169.077 229.273 169.001 229.187 168.868C229.054 168.668 229.083 168.402 229.263 168.241C246.138 153.562 263.888 155.245 283.662 158.715C285.069 158.962 286.685 159.314 288.568 159.722C290.983 160.245 293.73 160.835 296.639 161.339C296.829 161.377 296.982 161.519 297.02 161.709C297.058 161.899 296.982 162.099 296.82 162.204C295.033 163.383 293.198 164.523 291.23 165.712C291.125 165.769 291.011 165.788 290.897 165.769C289.642 165.531 288.378 165.293 287.113 165.065C286.495 164.951 285.792 164.818 285.022 164.666C274.802 162.698 250.882 158.087 229.786 169.011C229.72 169.049 229.644 169.068 229.567 169.068L229.577 169.077ZM261.958 157.298C251.861 157.298 242.269 159.532 232.99 166.463C253.421 157.621 275.477 161.871 285.212 163.744C285.982 163.896 286.676 164.029 287.294 164.143C288.501 164.362 289.709 164.59 290.907 164.818C292.437 163.896 293.892 162.993 295.299 162.08C292.808 161.624 290.479 161.12 288.378 160.664C286.505 160.264 284.889 159.913 283.501 159.665C276.047 158.353 268.879 157.308 261.958 157.308V157.298Z" fill="#404A2B"/>
<path d="M332.195 158.582C321.158 170.085 308.285 169.049 294.614 166.653C296.63 165.493 298.598 164.324 300.537 163.116C311.575 164.552 324.067 163.905 330.741 153.562C334.097 148.371 334.553 142.61 333.583 136.849C336.008 134.32 338.327 131.696 340.552 128.977C340.875 141.013 337.757 152.792 332.195 158.582Z" fill="#99A982"/>
<path d="M308.922 168.668C304.226 168.668 299.406 167.974 294.529 167.119C294.329 167.081 294.177 166.929 294.139 166.729C294.101 166.529 294.196 166.33 294.367 166.235C296.506 165.008 298.436 163.848 300.271 162.708C300.366 162.651 300.471 162.622 300.585 162.641C315.311 164.552 325.037 161.5 330.332 153.296C333.289 148.732 334.192 143.37 333.108 136.915C333.08 136.763 333.127 136.62 333.232 136.506C335.618 134.016 337.957 131.373 340.172 128.663C340.295 128.511 340.505 128.444 340.695 128.511C340.885 128.578 341.008 128.749 341.018 128.948C341.351 141.421 338.023 153.182 332.528 158.895C325.293 166.434 317.307 168.659 308.913 168.659L308.922 168.668ZM295.983 166.406C308.846 168.583 321.243 169.305 331.853 158.249C336.987 152.896 340.172 142.02 340.096 130.27C338.156 132.589 336.141 134.852 334.087 137.001C335.152 143.589 334.192 149.094 331.14 153.819C325.655 162.327 315.672 165.531 300.642 163.611C299.168 164.523 297.638 165.446 295.983 166.406Z" fill="#404A2B"/>
<path d="M45.7689 121.761C48.0696 125.383 50.5985 128.863 53.3175 132.19C55.7037 124.356 59.8868 116.912 62.0449 111.408C67.3498 97.8508 71.2001 70.0334 59.1833 62.9602C66.1614 80.7288 51.9009 99.2959 47.233 115.22C46.615 117.34 46.1207 119.536 45.7689 121.761Z" fill="#99A982"/>
<path d="M53.5171 133.179L52.9562 132.485C50.1897 129.1 47.6418 125.583 45.3791 122.008L45.2841 121.856L45.3126 121.675C45.6643 119.451 46.1587 117.236 46.7862 115.078C48.1362 110.476 50.2467 105.732 52.4713 100.722C57.9664 88.3724 63.6516 75.6046 58.7459 63.1219L58.2421 61.8384L59.4305 62.542C72.0557 69.9764 67.5684 98.602 62.4917 111.569C61.7026 113.575 60.6473 115.848 59.5255 118.262C57.5386 122.522 55.2949 127.351 53.7833 132.323L53.5266 133.179H53.5171ZM46.2728 121.656C48.3453 124.898 50.646 128.112 53.1368 131.201C54.6579 126.476 56.778 121.913 58.6699 117.873C59.7822 115.477 60.8375 113.214 61.6171 111.237C66.7128 98.2122 70.2684 72.144 60.1435 64.1867C64.2695 76.5743 58.7174 89.0474 53.346 101.121C51.1309 106.103 49.0298 110.809 47.6988 115.353C47.0999 117.416 46.615 119.536 46.2728 121.656Z" fill="#99A982"/>
<path d="M53.3175 132.665C53.1749 132.665 53.0418 132.599 52.9467 132.494C50.1802 129.11 47.6323 125.583 45.3696 122.018C45.3031 121.923 45.2841 121.799 45.3031 121.685C45.6548 119.46 46.1492 117.245 46.7767 115.087C48.1266 110.486 50.2372 105.742 52.4618 100.731C57.9569 88.3819 63.642 75.614 58.7364 63.1313C58.6604 62.9412 58.7174 62.732 58.8695 62.599C59.0217 62.4659 59.2498 62.4468 59.4209 62.5514C72.0462 69.9859 67.5589 98.6114 62.4822 111.579C61.6931 113.585 60.6378 115.857 59.516 118.272C57.5291 122.531 55.2854 127.361 53.7738 132.333C53.7263 132.504 53.5837 132.627 53.4125 132.656C53.384 132.656 53.3555 132.656 53.3175 132.656V132.665ZM46.2728 121.656C48.3358 124.898 50.646 128.102 53.1368 131.201C54.6579 126.476 56.778 121.913 58.6699 117.873C59.7822 115.477 60.8375 113.214 61.6171 111.237C66.7128 98.2121 70.2684 72.144 60.1435 64.1866C64.2695 76.5742 58.7174 89.0474 53.346 101.121C51.1309 106.103 49.0298 110.818 47.6988 115.353C47.0999 117.416 46.6245 119.536 46.2728 121.656Z" fill="#404A2B"/>
<path d="M87.7898 162.08C89.6437 163.297 91.4975 164.457 93.3609 165.579C94.6158 165.341 95.8802 165.103 97.1447 164.875C106.1 163.24 131.959 157.06 154.776 168.878C137.559 153.904 119.068 156.243 100.767 159.456C97.544 160.027 92.9331 161.186 87.7898 162.08Z" fill="#99A982"/>
<path d="M154.776 169.353C154.7 169.353 154.624 169.334 154.557 169.296C133.461 158.372 109.542 162.974 99.3313 164.942C98.5517 165.094 97.8577 165.227 97.2302 165.341C95.9658 165.569 94.7014 165.807 93.4464 166.044C93.3324 166.063 93.2088 166.044 93.1137 165.987C91.1648 164.809 89.3299 163.668 87.5236 162.479C87.362 162.375 87.2764 162.175 87.3144 161.985C87.3525 161.795 87.5046 161.643 87.6947 161.614C90.6039 161.11 93.3514 160.511 95.7757 159.989C97.6485 159.58 99.2742 159.237 100.672 158.99C120.456 155.52 138.196 153.837 155.071 168.516C155.251 168.678 155.289 168.944 155.156 169.144C155.061 169.277 154.919 169.353 154.767 169.353H154.776ZM123.165 161.339C131.978 161.339 141.856 162.612 151.373 166.738C135.724 155.054 119.182 156.718 100.852 159.931C99.4739 160.179 97.8577 160.521 95.9848 160.93C93.8838 161.386 91.545 161.89 89.0542 162.346C90.4803 163.268 91.9253 164.172 93.4464 165.084C94.6443 164.856 95.8517 164.628 97.0591 164.409C97.6771 164.295 98.3711 164.162 99.1506 164.01C104.351 163.012 113.059 161.329 123.165 161.329V161.339Z" fill="#404A2B"/>
<path d="M51.9009 157.745C62.9385 169.248 75.2216 168.611 88.8926 166.216C86.8771 165.056 85.5652 164.295 83.6257 163.088C72.5881 164.523 60.0389 163.078 53.365 152.735C50.009 147.544 49.5527 141.783 50.5224 136.021C48.0981 133.493 45.7784 130.869 43.5538 128.15C43.2306 140.186 46.3488 151.965 51.9104 157.754L51.9009 157.745Z" fill="#99A982"/>
<path d="M75.3546 168.136C67.0455 168.136 59.0312 165.864 51.5492 158.068C46.0541 152.354 42.7267 140.594 43.0594 128.121C43.0594 127.922 43.1925 127.75 43.3827 127.684C43.5728 127.617 43.782 127.684 43.9055 127.836C46.1302 130.555 48.4689 133.188 50.8456 135.679C50.9502 135.784 50.9978 135.936 50.9692 136.088C49.8854 142.543 50.7886 147.896 53.7453 152.469C60.6473 163.154 73.7575 163.886 83.5497 162.612C83.6543 162.593 83.7683 162.622 83.8634 162.679C85.8123 163.896 87.1528 164.666 89.1208 165.807C89.2919 165.911 89.387 166.102 89.3489 166.301C89.3109 166.501 89.1588 166.653 88.9592 166.691C84.3673 167.499 79.8134 168.155 75.3451 168.155L75.3546 168.136ZM43.9911 129.433C43.915 141.184 47.0999 152.06 52.2337 157.412C63.0431 168.668 75.0694 168.06 87.5046 165.968C86.1356 165.179 84.9947 164.504 83.5021 163.573C73.4628 164.856 60.0769 164.029 52.9467 152.982C49.8949 148.266 48.9252 142.762 49.9995 136.164C47.946 134.015 45.9305 131.753 43.9911 129.433Z" fill="#404A2B"/>
<path d="M209.394 156.842C209.394 156.842 209.394 156.842 209.403 156.842C209.403 156.842 209.403 156.832 209.422 156.823C214.794 153.058 219.062 148.941 223.188 144.967C227.305 141.003 231.193 137.257 235.966 133.987C247.403 126.125 258.374 122.246 268.584 122.445C268.784 122.445 268.945 122.617 268.945 122.826C268.945 122.883 268.936 122.93 268.907 122.978C268.85 123.101 268.717 123.196 268.565 123.187C258.516 122.987 247.697 126.828 236.384 134.605C231.659 137.847 227.799 141.573 223.702 145.509C223.607 145.604 223.512 145.69 223.416 145.785C224.823 144.663 226.25 143.579 227.666 142.6C234.853 137.676 243.2 134.196 251.785 132.551C260.256 130.926 267.5 131.487 273.328 134.206C273.509 134.291 273.594 134.51 273.509 134.7C273.423 134.881 273.205 134.966 273.014 134.881C267.329 132.219 260.237 131.686 251.918 133.283C243.429 134.919 235.177 138.351 228.075 143.218C225.223 145.177 222.371 147.563 219.614 149.873C218.482 150.824 217.332 151.774 216.172 152.725C216.258 152.659 216.343 152.592 216.429 152.525C217.437 151.727 218.435 150.938 219.424 150.187C227.248 144.283 234.568 140.48 241.803 138.55C250.673 136.183 259.534 136.744 266.73 140.128C266.911 140.214 266.996 140.433 266.911 140.623C266.825 140.803 266.607 140.889 266.417 140.803C259.372 137.495 250.702 136.953 241.993 139.273C234.853 141.174 227.609 144.939 219.87 150.786C218.882 151.527 217.893 152.316 216.885 153.115C212.559 156.547 208.101 160.065 203.014 161.31C203.062 161.31 203.11 161.319 203.157 161.329C203.233 161.329 203.328 161.348 203.404 161.348C203.49 161.348 203.575 161.367 203.67 161.377C204.032 161.405 204.421 161.434 204.84 161.462L205.667 161.529C210.886 160.359 214.603 157.222 218.539 153.894C219.661 152.944 220.821 151.965 222.038 151.014C227.485 146.755 234.017 142.42 241.176 142.657C245.473 142.809 249.504 144.559 253.401 146.251L253.839 146.441C257.984 148.247 262.053 149.864 266.302 149.654C270.333 149.464 274.925 147.059 275.924 142.8C275.981 142.572 276.028 142.334 276.066 142.096C276.18 141.526 276.304 140.927 276.561 140.385C277.159 139.102 278.576 138.151 280.43 137.771C281.228 137.6 282.037 137.533 282.816 137.476C283.52 137.419 284.252 137.352 284.946 137.219C288.283 136.563 291.135 134.053 292.028 130.973C292.96 127.76 291.639 124.033 288.958 122.303C287.104 121.124 284.917 120.867 282.597 120.592C281.466 120.458 280.297 120.325 279.175 120.069C276.038 119.365 273.214 117.711 270.486 116.114C269.668 115.638 268.85 115.154 268.023 114.707C263.479 112.206 259.724 111.417 256.539 112.282C254.343 112.881 252.384 114.317 250.663 115.581C245.71 119.232 241.641 122.417 237.896 126.039C234.635 129.214 231.63 132.751 228.731 136.183C226.839 138.417 224.89 140.718 222.875 142.914C217.779 148.466 213.539 151.185 205.886 155.891C205.686 156.081 205.467 156.271 205.258 156.461C203.832 157.735 201.17 160.122 201.246 160.816C201.246 160.816 201.246 160.835 201.246 160.844C201.246 160.844 201.246 160.844 201.246 160.854C201.246 160.863 201.256 160.873 201.265 160.882C201.265 160.882 201.265 160.882 201.275 160.892C203.832 160.084 206.485 158.781 209.356 156.899L209.394 156.842Z" fill="#404A2B"/>
<path d="M279.356 119.299C276.332 118.624 273.556 116.998 270.875 115.429C270.048 114.944 269.231 114.469 268.394 114.013C263.669 111.417 259.733 110.6 256.368 111.522C254.038 112.159 252.023 113.642 250.245 114.944C245.273 118.614 241.185 121.808 237.401 125.469C234.112 128.663 231.098 132.219 228.179 135.66C226.297 137.885 224.348 140.185 222.342 142.363C218.064 147.03 214.366 149.683 208.662 153.258C208.215 153.685 207.768 154.104 207.302 154.541C213.957 150.424 217.893 147.763 222.608 142.619C227.714 137.067 232.239 130.983 237.648 125.735C241.622 121.885 246.015 118.519 250.454 115.239C252.318 113.87 254.229 112.492 256.453 111.874C260.408 110.799 264.61 112.359 268.204 114.336C271.798 116.313 275.249 118.766 279.251 119.66C282.578 120.411 286.277 120.107 289.148 121.942C292.038 123.795 293.34 127.722 292.371 131.021C291.401 134.329 288.387 136.868 285.003 137.533C283.51 137.818 281.989 137.771 280.496 138.084C279.023 138.389 277.502 139.159 276.874 140.528C276.532 141.25 276.465 142.068 276.275 142.847C275.277 147.116 270.695 149.778 266.312 149.987C261.92 150.196 257.699 148.504 253.677 146.745C249.656 144.996 245.53 143.142 241.147 142.99C234.121 142.762 227.78 146.935 222.247 151.271C217.018 155.368 212.968 159.855 206.741 161.595C207.055 161.624 207.378 161.662 207.701 161.69C212.132 160.226 215.488 157.403 219.005 154.417C220.118 153.476 221.277 152.497 222.475 151.556C227.818 147.373 234.207 143.133 241.137 143.351C245.292 143.494 249.256 145.215 253.097 146.878L253.535 147.069C257.756 148.913 261.92 150.558 266.331 150.339C270.638 150.139 275.562 147.525 276.637 142.923C276.694 142.686 276.741 142.439 276.789 142.191C276.893 141.64 276.979 141.155 277.217 140.651C277.93 139.13 279.802 138.598 280.572 138.436C281.324 138.275 282.113 138.218 282.864 138.151C283.586 138.094 284.337 138.027 285.069 137.885C288.207 137.267 290.945 135.128 292.247 132.371C292.437 131.962 292.599 131.544 292.722 131.116C293.749 127.598 292.295 123.52 289.338 121.618C287.341 120.344 284.965 120.069 282.664 119.793C281.552 119.66 280.401 119.527 279.327 119.28L279.356 119.299Z" fill="#404A2B"/>
<path d="M205.277 156.404C205.486 156.224 205.705 156.024 205.905 155.834C213.567 151.128 217.807 148.409 222.894 142.857C224.909 140.67 226.858 138.36 228.75 136.126C231.65 132.703 234.654 129.157 237.915 125.982C241.66 122.35 245.729 119.175 250.682 115.524C252.403 114.26 254.362 112.824 256.558 112.225C259.733 111.36 263.488 112.159 268.042 114.65C268.869 115.106 269.687 115.581 270.505 116.057C273.233 117.654 276.057 119.308 279.194 120.012C280.316 120.268 281.485 120.401 282.616 120.535C284.936 120.81 287.123 121.057 288.977 122.246C291.667 123.976 292.989 127.703 292.047 130.916C291.144 133.996 288.302 136.516 284.965 137.162C284.271 137.295 283.539 137.352 282.835 137.419C282.056 137.486 281.247 137.552 280.449 137.714C278.585 138.103 277.178 139.054 276.58 140.328C276.323 140.88 276.199 141.469 276.085 142.039C276.038 142.277 276 142.505 275.943 142.743C274.944 147.002 270.352 149.407 266.321 149.597C262.072 149.807 258.003 148.2 253.858 146.384L253.421 146.194C249.523 144.502 245.492 142.752 241.195 142.6C234.036 142.372 227.495 146.698 222.057 150.957C220.84 151.908 219.68 152.887 218.558 153.838C214.622 157.165 210.905 160.302 205.686 161.472L204.859 161.405L205.733 161.472C206.076 161.5 206.418 161.538 206.76 161.567C212.987 159.827 217.047 155.34 222.266 151.242C227.799 146.907 234.14 142.733 241.166 142.962C245.549 143.114 249.675 144.968 253.696 146.717C257.718 148.476 261.939 150.168 266.331 149.959C270.714 149.759 275.296 147.097 276.294 142.819C276.484 142.049 276.551 141.231 276.893 140.499C277.521 139.13 279.042 138.37 280.515 138.056C282.008 137.742 283.529 137.79 285.022 137.505C288.406 136.839 291.429 134.31 292.39 130.992C293.35 127.693 292.057 123.767 289.167 121.913C286.296 120.078 282.588 120.382 279.27 119.631C275.268 118.728 271.817 116.285 268.223 114.307C264.629 112.33 260.427 110.771 256.472 111.845C254.248 112.454 252.337 113.842 250.473 115.211C246.034 118.481 241.641 121.856 237.667 125.706C232.258 130.954 227.733 137.039 222.627 142.591C217.912 147.734 213.976 150.406 207.321 154.513C206.865 154.94 206.408 155.359 205.933 155.796C205.733 155.986 205.505 156.195 205.287 156.385L205.277 156.404Z" fill="#404A2B"/>
<path d="M209.85 157.422C209.85 157.422 209.84 157.422 209.831 157.431C209.831 157.431 209.821 157.45 209.812 157.45L208.842 158.135C205.591 160.426 205.534 160.473 203.138 161.11C202.995 161.148 202.834 161.186 202.672 161.234C202.786 161.253 202.9 161.262 203.024 161.272C208.101 160.027 212.569 156.499 216.895 153.077C217.902 152.278 218.891 151.489 219.88 150.748C227.619 144.901 234.863 141.136 242.003 139.235C250.711 136.915 259.381 137.457 266.426 140.765C266.607 140.851 266.835 140.765 266.92 140.585C267.006 140.404 266.92 140.176 266.74 140.09C259.533 136.706 250.682 136.145 241.812 138.512C234.578 140.442 227.257 144.245 219.433 150.149C218.444 150.89 217.446 151.689 216.438 152.488C216.353 152.554 216.267 152.621 216.182 152.687C214.128 154.36 212.027 155.986 209.859 157.403L209.85 157.422Z" fill="#404A2B"/>
<path d="M216.182 152.706C217.341 151.765 218.492 150.805 219.623 149.854C222.38 147.544 225.232 145.158 228.084 143.199C235.196 138.332 243.438 134.9 251.928 133.264C260.247 131.667 267.339 132.209 273.024 134.862C273.205 134.947 273.423 134.862 273.518 134.681C273.604 134.491 273.518 134.272 273.338 134.187C267.51 131.458 260.266 130.907 251.795 132.532C243.2 134.187 234.863 137.657 227.676 142.581C226.25 143.56 224.833 144.635 223.426 145.766C219.557 149.483 215.545 153.315 210.601 156.87C212.512 155.587 214.366 154.132 216.191 152.687L216.182 152.706Z" fill="#404A2B"/>
<path d="M209.441 156.813C212.797 154.617 216.03 151.908 219.157 149.293C220.555 148.124 221.981 146.926 223.426 145.776C223.521 145.681 223.616 145.595 223.711 145.5C227.809 141.554 231.669 137.837 236.394 134.595C247.707 126.828 258.526 122.987 268.575 123.177C268.727 123.177 268.86 123.092 268.917 122.968C268.936 122.921 268.955 122.873 268.955 122.816C268.955 122.617 268.793 122.445 268.594 122.436C258.393 122.236 247.422 126.115 235.975 133.977C231.203 137.257 227.314 140.994 223.198 144.958C219.072 148.932 214.803 153.039 209.432 156.813C209.432 156.813 209.422 156.823 209.413 156.832C209.413 156.832 209.422 156.813 209.432 156.813H209.441Z" fill="#404A2B"/>
<path d="M209.441 156.813C209.441 156.813 209.432 156.832 209.422 156.842C209.584 156.747 209.802 156.794 209.907 156.946C209.983 157.06 209.983 157.212 209.926 157.326C210.154 157.184 210.373 157.032 210.601 156.88C215.545 153.315 219.557 149.493 223.426 145.776C221.99 146.926 220.564 148.114 219.157 149.293C216.03 151.917 212.797 154.617 209.441 156.813Z" fill="#404A2B"/>
<path d="M201.275 161.186C200.286 160.645 201.322 159.399 205.077 156.043C205.296 155.853 205.515 155.653 205.724 155.454C213.444 150.71 217.646 148.038 222.76 142.448C227.894 136.868 232.448 130.755 237.886 125.469C241.879 121.599 246.3 118.205 250.759 114.916C252.631 113.537 254.552 112.149 256.795 111.531C260.779 110.448 265 112.016 268.613 114.003C272.235 115.99 275.695 118.453 279.726 119.356C283.073 120.116 286.79 119.802 289.68 121.647C292.589 123.52 293.892 127.465 292.922 130.783C291.952 134.111 288.91 136.658 285.507 137.333C284.004 137.619 282.474 137.571 280.972 137.885C279.489 138.189 277.958 138.969 277.331 140.338C276.988 141.07 276.922 141.887 276.732 142.667C275.724 146.964 271.123 149.645 266.711 149.845C262.3 150.063 258.05 148.352 254.01 146.584C249.96 144.825 245.815 142.962 241.413 142.809C234.349 142.581 227.97 146.783 222.409 151.138C216.857 155.492 212.626 160.274 205.752 161.795C203.49 161.624 201.921 161.557 201.275 161.177C205.886 159.865 204.593 160.635 209.669 157.06C206.998 158.81 204.222 160.274 201.275 161.177V161.186Z" fill="#99A982"/>
<path d="M292.808 132.162C291.506 134.928 288.748 137.086 285.592 137.704C284.851 137.847 284.1 137.913 283.368 137.97C282.607 138.037 281.818 138.103 281.057 138.256C280.278 138.417 278.405 138.959 277.682 140.48V140.499C277.454 140.965 277.35 141.488 277.245 142.03C277.197 142.277 277.15 142.524 277.093 142.762C276.009 147.392 271.056 150.025 266.73 150.225C262.3 150.444 258.117 148.789 253.867 146.935L253.44 146.745C249.58 145.072 245.587 143.332 241.404 143.19C234.435 142.962 228.008 147.23 222.637 151.432C221.43 152.383 220.26 153.362 219.138 154.313C215.098 157.726 211.276 160.958 205.829 162.156C205.791 162.156 205.752 162.166 205.724 162.156L204.821 162.09C202.957 161.956 201.722 161.861 201.085 161.491C200.685 161.272 200.571 160.968 200.552 160.759C200.457 159.922 201.417 158.8 204.83 155.748C205.049 155.558 205.268 155.359 205.467 155.168C205.486 155.149 205.505 155.13 205.524 155.121C213.187 150.415 217.427 147.706 222.485 142.182C224.5 139.995 226.459 137.676 228.351 135.442C231.279 131.981 234.311 128.406 237.62 125.183C241.413 121.504 245.53 118.291 250.53 114.602C252.318 113.29 254.343 111.807 256.681 111.161C260.075 110.238 264.03 111.056 268.774 113.67C269.611 114.127 270.438 114.612 271.265 115.097C273.956 116.675 276.741 118.3 279.783 118.985C280.867 119.232 282.027 119.365 283.139 119.498C285.45 119.764 287.845 120.05 289.851 121.333C292.817 123.244 294.282 127.342 293.255 130.878C293.131 131.306 292.97 131.734 292.779 132.143L292.808 132.162ZM277.017 140.166C277.625 138.883 279.042 137.923 280.905 137.533C281.704 137.362 282.521 137.295 283.301 137.229C284.014 137.172 284.746 137.105 285.44 136.972C288.796 136.316 291.658 133.787 292.57 130.688C293.511 127.456 292.18 123.7 289.481 121.97C287.617 120.782 285.412 120.525 283.082 120.249C281.941 120.116 280.772 119.983 279.65 119.726C276.494 119.023 273.661 117.359 270.913 115.753C270.086 115.268 269.269 114.792 268.432 114.336C263.859 111.826 260.085 111.028 256.881 111.893C254.666 112.501 252.707 113.946 250.968 115.211C245.986 118.89 241.898 122.084 238.133 125.735C234.844 128.929 231.83 132.485 228.911 135.936C227.01 138.18 225.042 140.499 223.017 142.705C217.893 148.285 213.634 151.023 205.933 155.748C205.733 155.939 205.515 156.138 205.306 156.319C203.87 157.602 201.199 159.998 201.275 160.692C201.275 160.711 201.275 160.74 201.322 160.778C203.899 159.97 206.561 158.648 209.451 156.756C209.622 156.642 209.84 156.69 209.955 156.861C210.069 157.032 210.031 157.251 209.86 157.374L208.89 158.059C205.591 160.388 205.534 160.416 203.157 161.053C203.005 161.091 202.843 161.139 202.672 161.177C203.271 161.253 204.013 161.31 204.859 161.367L205.705 161.434C210.953 160.264 214.689 157.098 218.653 153.761C219.785 152.811 220.945 151.822 222.171 150.862C227.647 146.574 234.216 142.22 241.413 142.458C245.729 142.61 249.789 144.369 253.715 146.07L254.153 146.26C258.317 148.086 262.414 149.702 266.692 149.493C270.742 149.303 275.363 146.878 276.37 142.6C276.427 142.372 276.475 142.134 276.513 141.897C276.627 141.326 276.722 140.737 277.007 140.166H277.017Z" fill="#404A2B"/>
<path d="M267.31 140.414C267.225 140.594 267.006 140.68 266.816 140.594C259.733 137.267 251.006 136.715 242.25 139.054C235.063 140.965 227.79 144.758 220.003 150.634C219.015 151.385 218.016 152.174 216.999 152.972C212.16 156.813 207.15 160.778 201.303 161.557C201.104 161.586 200.913 161.443 200.885 161.243C200.856 161.044 200.999 160.854 201.199 160.825C206.846 160.074 211.77 156.176 216.533 152.392C217.551 151.584 218.558 150.795 219.547 150.044C227.409 144.112 234.768 140.28 242.05 138.341C250.977 135.964 259.876 136.525 267.12 139.929C267.301 140.014 267.386 140.233 267.301 140.423L267.31 140.414Z" fill="#404A2B"/>
<path d="M273.937 134.481C273.851 134.662 273.632 134.747 273.442 134.662C267.729 131.99 260.589 131.449 252.232 133.055C243.695 134.69 235.405 138.151 228.256 143.047C225.384 145.015 222.523 147.411 219.747 149.74C216.59 152.383 213.32 155.121 209.907 157.355C209.802 157.45 209.641 157.479 209.498 157.412C209.251 157.298 209.223 156.918 209.498 156.737C212.873 154.531 216.125 151.803 219.271 149.17C222.057 146.84 224.938 144.426 227.837 142.439C235.063 137.485 243.457 133.996 252.09 132.333C260.608 130.697 267.9 131.258 273.756 133.996C273.937 134.082 274.022 134.301 273.937 134.491V134.481Z" fill="#404A2B"/>
<path d="M269.307 122.693C269.25 122.816 269.117 122.911 268.964 122.902C258.859 122.702 247.973 126.562 236.603 134.377C231.849 137.638 227.961 141.383 223.844 145.348C219.671 149.36 215.364 153.514 209.917 157.336C209.812 157.431 209.65 157.46 209.508 157.393C209.261 157.279 209.223 156.908 209.498 156.728C214.898 152.934 219.186 148.808 223.34 144.806C227.476 140.822 231.393 137.058 236.194 133.759C247.697 125.849 258.735 121.951 268.993 122.151C269.193 122.151 269.354 122.322 269.354 122.531C269.354 122.588 269.345 122.636 269.316 122.683L269.307 122.693Z" fill="#404A2B"/>
<path d="M180.797 155.977C180.797 155.977 180.797 155.977 180.787 155.977C180.787 155.977 180.787 155.967 180.768 155.958C175.397 152.193 171.128 148.076 167.002 144.102C162.885 140.138 158.997 136.392 154.225 133.122C142.788 125.26 131.817 121.381 121.606 121.58C121.406 121.58 121.245 121.751 121.245 121.961C121.245 122.018 121.254 122.065 121.283 122.113C121.34 122.236 121.473 122.331 121.625 122.322C131.674 122.122 142.493 125.963 153.806 133.74C158.531 136.982 162.391 140.708 166.489 144.644C166.584 144.739 166.679 144.825 166.774 144.92C165.367 143.798 163.941 142.714 162.524 141.735C155.337 136.811 146.99 133.331 138.405 131.686C129.934 130.061 122.69 130.621 116.862 133.34C116.682 133.426 116.596 133.645 116.682 133.835C116.767 134.015 116.986 134.101 117.176 134.015C122.861 131.354 129.953 130.821 138.272 132.418C146.762 134.054 155.014 137.486 162.115 142.353C164.968 144.312 167.82 146.698 170.577 149.008C171.708 149.959 172.858 150.909 174.018 151.86C173.933 151.794 173.847 151.727 173.761 151.66C172.754 150.862 171.756 150.073 170.767 149.322C162.943 143.418 155.622 139.615 148.387 137.685C139.517 135.318 130.657 135.879 123.46 139.263C123.279 139.349 123.194 139.568 123.279 139.758C123.365 139.938 123.584 140.024 123.774 139.938C130.818 136.63 139.489 136.088 148.197 138.408C155.337 140.309 162.581 144.074 170.32 149.921C171.309 150.662 172.297 151.451 173.305 152.25C177.631 155.682 182.09 159.199 187.176 160.445C187.128 160.445 187.081 160.454 187.033 160.464C186.957 160.464 186.862 160.483 186.786 160.483C186.7 160.483 186.615 160.502 186.52 160.511C186.159 160.54 185.769 160.568 185.35 160.597L184.523 160.664C179.304 159.494 175.587 156.357 171.651 153.029C170.529 152.079 169.369 151.1 168.152 150.149C162.705 145.89 156.174 141.555 149.015 141.792C144.718 141.944 140.687 143.694 136.789 145.386L136.351 145.576C132.206 147.382 128.137 148.998 123.888 148.789C119.857 148.599 115.265 146.194 114.267 141.935C114.21 141.707 114.162 141.469 114.124 141.231C114.01 140.661 113.886 140.062 113.63 139.52C113.031 138.237 111.614 137.286 109.76 136.906C108.962 136.734 108.154 136.668 107.374 136.611C106.671 136.554 105.939 136.487 105.245 136.354C101.908 135.698 99.0556 133.188 98.1619 130.108C97.2302 126.895 98.5517 123.168 101.233 121.438C103.087 120.259 105.273 120.002 107.593 119.726C108.724 119.593 109.894 119.46 111.015 119.204C114.153 118.5 116.976 116.846 119.705 115.249C120.522 114.773 121.34 114.288 122.167 113.842C126.711 111.341 130.467 110.552 133.651 111.417C135.848 112.016 137.806 113.452 139.527 114.716C144.48 118.367 148.549 121.552 152.295 125.174C155.556 128.349 158.56 131.886 161.459 135.318C163.351 137.552 165.3 139.853 167.316 142.049C172.411 147.601 176.652 150.32 184.305 155.026C184.504 155.216 184.723 155.406 184.932 155.596C186.358 156.87 189.02 159.257 188.944 159.951C188.944 159.951 188.944 159.97 188.944 159.979C188.944 159.979 188.944 159.979 188.944 159.989C188.944 159.998 188.935 160.008 188.925 160.017C188.925 160.017 188.925 160.017 188.916 160.027C186.358 159.218 183.706 157.916 180.835 156.034L180.797 155.977Z" fill="#404A2B"/>
<path d="M110.835 118.434C113.858 117.759 116.634 116.133 119.315 114.564C120.142 114.079 120.96 113.604 121.796 113.148C126.521 110.552 130.457 109.735 133.823 110.657C136.152 111.294 138.167 112.777 139.945 114.079C144.917 117.749 149.005 120.943 152.789 124.604C156.078 127.798 159.092 131.353 162.011 134.795C163.893 137.02 165.842 139.32 167.848 141.497C172.126 146.165 175.824 148.818 181.529 152.392C181.976 152.82 182.422 153.239 182.888 153.676C176.233 149.559 172.297 146.897 167.582 141.754C162.477 136.202 157.951 130.118 152.542 124.87C148.568 121.019 144.176 117.654 139.736 114.374C137.873 113.005 135.962 111.627 133.737 111.009C129.782 109.934 125.58 111.493 121.986 113.471C118.393 115.448 114.942 117.901 110.939 118.795C107.612 119.546 103.914 119.242 101.043 121.076C98.1524 122.93 96.85 126.857 97.8197 130.156C98.7894 133.464 101.803 136.002 105.188 136.668C106.68 136.953 108.201 136.906 109.694 137.219C111.167 137.524 112.689 138.294 113.316 139.663C113.658 140.385 113.725 141.203 113.915 141.982C114.913 146.251 119.496 148.913 123.878 149.122C128.271 149.331 132.492 147.639 136.513 145.88C140.535 144.131 144.661 142.277 149.043 142.125C156.069 141.897 162.41 146.07 167.943 150.405C173.172 154.503 177.222 158.99 183.449 160.73C183.135 160.759 182.812 160.797 182.489 160.825C178.059 159.361 174.703 156.538 171.185 153.552C170.073 152.611 168.913 151.632 167.715 150.691C162.372 146.508 155.983 142.268 149.053 142.486C144.898 142.629 140.934 144.35 137.093 146.013L136.656 146.203C132.435 148.048 128.271 149.692 123.859 149.474C119.553 149.274 114.628 146.66 113.554 142.058C113.497 141.821 113.449 141.574 113.402 141.326C113.297 140.775 113.211 140.29 112.974 139.786C112.261 138.265 110.388 137.733 109.618 137.571C108.867 137.409 108.078 137.352 107.327 137.286C106.604 137.229 105.853 137.162 105.121 137.02C101.984 136.402 99.2457 134.263 97.9433 131.506C97.7531 131.097 97.5915 130.679 97.4679 130.251C96.4412 126.733 97.8957 122.655 100.852 120.753C102.849 119.479 105.226 119.204 107.526 118.928C108.639 118.795 109.789 118.662 110.863 118.414L110.835 118.434Z" fill="#404A2B"/>
<path d="M184.913 155.539C184.704 155.359 184.485 155.159 184.286 154.969C176.623 150.263 172.383 147.544 167.297 141.992C165.281 139.805 163.332 137.495 161.44 135.261C158.541 131.838 155.537 128.292 152.276 125.117C148.53 121.485 144.461 118.31 139.508 114.659C137.787 113.395 135.829 111.959 133.632 111.36C130.457 110.495 126.702 111.294 122.148 113.785C121.321 114.241 120.503 114.716 119.686 115.192C116.957 116.789 114.134 118.443 110.996 119.147C109.875 119.403 108.705 119.536 107.574 119.669C105.254 119.945 103.068 120.192 101.214 121.381C98.5232 123.111 97.2017 126.838 98.1429 130.051C99.0461 133.131 101.889 135.651 105.226 136.297C105.92 136.43 106.652 136.487 107.355 136.554C108.135 136.62 108.943 136.687 109.741 136.849C111.605 137.238 113.012 138.189 113.611 139.463C113.867 140.014 113.991 140.604 114.105 141.174C114.153 141.412 114.191 141.64 114.248 141.878C115.246 146.137 119.838 148.542 123.869 148.732C128.118 148.941 132.187 147.335 136.332 145.519L136.77 145.329C140.668 143.636 144.699 141.887 148.996 141.735C156.155 141.507 162.695 145.833 168.133 150.092C169.35 151.042 170.51 152.022 171.632 152.972C175.568 156.3 179.285 159.437 184.504 160.606L185.331 160.54L184.457 160.606C184.115 160.635 183.772 160.673 183.43 160.702C177.203 158.962 173.144 154.474 167.924 150.377C162.391 146.042 156.05 141.868 149.024 142.096C144.642 142.248 140.516 144.102 136.494 145.852C132.473 147.61 128.252 149.303 123.859 149.094C119.477 148.894 114.894 146.232 113.896 141.954C113.706 141.184 113.639 140.366 113.297 139.634C112.67 138.265 111.148 137.504 109.675 137.191C108.182 136.877 106.661 136.925 105.169 136.639C101.784 135.974 98.7609 133.445 97.8006 130.127C96.8404 126.828 98.1334 122.902 101.024 121.048C103.895 119.213 107.602 119.517 110.92 118.766C114.923 117.863 118.374 115.42 121.967 113.442C125.561 111.465 129.763 109.906 133.718 110.98C135.943 111.588 137.854 112.976 139.717 114.345C144.157 117.616 148.549 120.991 152.523 124.841C157.932 130.089 162.458 136.174 167.563 141.726C172.278 146.869 176.214 149.54 182.869 153.647C183.325 154.075 183.782 154.493 184.257 154.931C184.457 155.121 184.685 155.33 184.904 155.52L184.913 155.539Z" fill="#404A2B"/>
<path d="M180.34 156.556C180.34 156.556 180.35 156.556 180.359 156.566C180.359 156.566 180.369 156.585 180.378 156.585L181.348 157.27C184.599 159.561 184.656 159.608 187.052 160.245C187.195 160.283 187.356 160.321 187.518 160.369C187.404 160.388 187.29 160.397 187.166 160.407C182.09 159.161 177.621 155.634 173.296 152.212C172.288 151.413 171.299 150.624 170.31 149.883C162.572 144.036 155.327 140.271 148.188 138.37C139.479 136.05 130.809 136.592 123.764 139.9C123.584 139.986 123.355 139.9 123.27 139.72C123.184 139.539 123.27 139.311 123.451 139.225C130.657 135.841 139.508 135.28 148.378 137.647C155.613 139.577 162.933 143.38 170.757 149.284C171.746 150.025 172.744 150.824 173.752 151.622C173.838 151.689 173.923 151.755 174.009 151.822C176.062 153.495 178.163 155.121 180.331 156.537L180.34 156.556Z" fill="#404A2B"/>
<path d="M174.009 151.841C172.849 150.9 171.698 149.94 170.567 148.989C167.81 146.679 164.958 144.293 162.106 142.334C154.995 137.467 146.752 134.034 138.262 132.399C129.944 130.802 122.852 131.344 117.166 133.996C116.986 134.082 116.767 133.996 116.672 133.816C116.586 133.626 116.672 133.407 116.853 133.321C122.68 130.593 129.925 130.042 138.395 131.667C146.99 133.321 155.327 136.791 162.515 141.716C163.941 142.695 165.357 143.77 166.764 144.901C170.634 148.618 174.646 152.45 179.589 156.005C177.678 154.722 175.824 153.267 173.999 151.822L174.009 151.841Z" fill="#404A2B"/>
<path d="M180.749 155.948C177.393 153.752 174.161 151.043 171.033 148.428C169.635 147.259 168.209 146.061 166.764 144.911C166.669 144.815 166.574 144.73 166.479 144.635C162.382 140.689 158.522 136.972 153.797 133.73C142.483 125.963 131.665 122.122 121.616 122.312C121.464 122.312 121.33 122.227 121.273 122.103C121.254 122.056 121.235 122.008 121.235 121.951C121.235 121.752 121.397 121.58 121.597 121.571C131.798 121.371 142.769 125.25 154.215 133.112C158.988 136.392 162.876 140.129 166.992 144.093C171.119 148.067 175.387 152.174 180.759 155.948C180.759 155.948 180.768 155.958 180.778 155.967C180.778 155.967 180.768 155.948 180.759 155.948H180.749Z" fill="#404A2B"/>
<path d="M180.749 155.948C180.749 155.948 180.759 155.967 180.768 155.977C180.606 155.882 180.388 155.929 180.283 156.081C180.207 156.195 180.207 156.347 180.264 156.461C180.036 156.319 179.817 156.167 179.589 156.015C174.646 152.45 170.634 148.628 166.764 144.91C168.2 146.061 169.626 147.249 171.033 148.428C174.161 151.052 177.393 153.752 180.749 155.948Z" fill="#404A2B"/>
<path d="M188.916 160.312C189.904 159.77 188.868 158.524 185.113 155.169C184.894 154.978 184.675 154.779 184.466 154.579C176.747 149.835 172.545 147.164 167.43 141.574C162.296 135.993 157.742 129.88 152.304 124.594C148.311 120.725 143.891 117.331 139.432 114.041C137.559 112.663 135.638 111.275 133.395 110.657C129.411 109.573 125.19 111.142 121.578 113.129C117.955 115.116 114.495 117.578 110.464 118.481C107.117 119.242 103.4 118.928 100.51 120.772C97.601 122.645 96.2985 126.59 97.2683 129.908C98.238 133.236 101.28 135.784 104.684 136.459C106.186 136.744 107.716 136.696 109.219 137.01C110.702 137.314 112.232 138.094 112.86 139.463C113.202 140.195 113.269 141.013 113.459 141.792C114.466 146.089 119.068 148.77 123.479 148.97C127.89 149.189 132.14 147.477 136.18 145.709C140.23 143.95 144.375 142.087 148.777 141.935C155.841 141.707 162.22 145.909 167.782 150.263C173.334 154.617 177.564 159.399 184.438 160.92C186.7 160.749 188.269 160.683 188.916 160.302C184.305 158.99 185.598 159.76 180.521 156.186C183.192 157.935 185.968 159.399 188.916 160.302V160.312Z" fill="#99A982"/>
<path d="M96.907 130.032C95.8802 126.495 97.3443 122.388 100.31 120.487C102.316 119.204 104.712 118.928 107.022 118.652C108.135 118.519 109.295 118.386 110.378 118.139C113.421 117.454 116.206 115.829 118.897 114.25C119.724 113.766 120.551 113.281 121.387 112.824C126.141 110.219 130.096 109.392 133.48 110.315C135.829 110.961 137.854 112.444 139.631 113.756C144.642 117.454 148.749 120.668 152.542 124.337C155.85 127.551 158.883 131.135 161.811 134.595C163.703 136.83 165.671 139.149 167.677 141.336C172.735 146.85 176.975 149.569 184.637 154.275C184.656 154.284 184.675 154.303 184.695 154.322C184.894 154.513 185.113 154.712 185.331 154.902C188.744 157.954 189.705 159.076 189.61 159.912C189.581 160.122 189.477 160.426 189.077 160.645C188.44 161.015 187.204 161.11 185.341 161.243L184.438 161.31C184.438 161.31 184.362 161.31 184.333 161.31C178.876 160.112 175.064 156.88 171.023 153.467C169.902 152.516 168.742 151.537 167.525 150.586C162.153 146.384 155.727 142.115 148.758 142.344C144.575 142.486 140.582 144.226 136.722 145.899L136.294 146.089C132.045 147.943 127.862 149.597 123.431 149.379C119.106 149.179 114.153 146.546 113.069 141.916C113.012 141.678 112.964 141.431 112.917 141.184C112.812 140.642 112.717 140.119 112.489 139.653V139.634C111.757 138.103 109.884 137.571 109.104 137.409C108.344 137.248 107.555 137.181 106.794 137.124C106.062 137.067 105.311 137.001 104.57 136.858C101.413 136.24 98.6563 134.082 97.3538 131.315C97.1637 130.907 97.0021 130.488 96.8785 130.051L96.907 130.032ZM113.668 141.022C113.715 141.26 113.753 141.488 113.81 141.726C114.818 146.013 119.439 148.428 123.489 148.618C127.767 148.827 131.855 147.211 136.028 145.386L136.466 145.196C140.392 143.494 144.442 141.726 148.768 141.583C155.974 141.345 162.543 145.7 168.01 149.987C169.236 150.947 170.396 151.936 171.527 152.887C175.482 156.233 179.218 159.39 184.476 160.559L185.322 160.492C186.159 160.426 186.91 160.378 187.509 160.302C187.337 160.255 187.176 160.217 187.024 160.179C184.647 159.542 184.59 159.513 181.291 157.184L180.321 156.499C180.16 156.385 180.112 156.157 180.226 155.986C180.34 155.815 180.568 155.777 180.73 155.882C183.62 157.773 186.292 159.095 188.859 159.903C188.897 159.865 188.906 159.836 188.906 159.817C188.982 159.123 186.311 156.728 184.875 155.444C184.666 155.254 184.447 155.064 184.248 154.874C176.547 150.149 172.278 147.411 167.164 141.83C165.139 139.625 163.171 137.305 161.269 135.061C158.351 131.62 155.327 128.055 152.048 124.86C148.283 121.21 144.195 118.015 139.213 114.336C137.483 113.062 135.515 111.617 133.3 111.018C130.105 110.153 126.322 110.951 121.749 113.461C120.922 113.918 120.095 114.403 119.267 114.878C116.52 116.485 113.687 118.139 110.531 118.852C109.409 119.108 108.23 119.242 107.098 119.375C104.769 119.65 102.564 119.907 100.7 121.095C98.0003 122.835 96.6693 126.581 97.6105 129.813C98.5137 132.913 101.385 135.441 104.741 136.097C105.444 136.231 106.176 136.297 106.88 136.354C107.669 136.421 108.477 136.487 109.276 136.658C111.148 137.048 112.565 138.008 113.164 139.292C113.44 139.862 113.544 140.442 113.658 141.022H113.668Z" fill="#404A2B"/>
<path d="M122.88 139.549C122.966 139.729 123.184 139.815 123.374 139.729C130.457 136.402 139.185 135.85 147.94 138.189C155.128 140.1 162.401 143.893 170.187 149.769C171.176 150.52 172.174 151.309 173.191 152.107C178.03 155.948 183.04 159.913 188.887 160.692C189.087 160.721 189.277 160.578 189.305 160.378C189.334 160.179 189.191 159.989 188.992 159.96C183.345 159.209 178.42 155.311 173.657 151.527C172.64 150.719 171.632 149.93 170.643 149.179C162.781 143.247 155.423 139.416 148.14 137.476C139.213 135.099 130.315 135.66 123.07 139.064C122.89 139.149 122.804 139.368 122.89 139.558L122.88 139.549Z" fill="#404A2B"/>
<path d="M116.254 133.616C116.339 133.797 116.558 133.882 116.748 133.797C122.462 131.125 129.602 130.583 137.958 132.19C146.495 133.825 154.786 137.286 161.935 142.182C164.806 144.15 167.667 146.546 170.444 148.875C173.6 151.518 176.87 154.256 180.283 156.49C180.388 156.585 180.549 156.614 180.692 156.547C180.939 156.433 180.968 156.053 180.692 155.872C177.317 153.666 174.066 150.938 170.919 148.304C168.133 145.975 165.253 143.561 162.353 141.574C155.128 136.62 146.733 133.131 138.101 131.468C129.583 129.832 122.291 130.393 116.434 133.131C116.254 133.217 116.168 133.436 116.254 133.626V133.616Z" fill="#404A2B"/>
<path d="M120.884 121.818C120.941 121.942 121.074 122.037 121.226 122.027C131.332 121.828 142.217 125.687 153.588 133.502C158.341 136.763 162.229 140.509 166.346 144.473C170.52 148.485 174.826 152.64 180.274 156.461C180.378 156.557 180.54 156.585 180.683 156.519C180.93 156.404 180.968 156.034 180.692 155.853C175.292 152.06 171.004 147.934 166.85 143.931C162.714 139.948 158.797 136.183 153.996 132.884C142.493 124.974 131.455 121.076 121.197 121.276C120.998 121.276 120.836 121.447 120.836 121.656C120.836 121.713 120.846 121.761 120.874 121.808L120.884 121.818Z" fill="#404A2B"/>
<path d="M191.302 131.553C186.767 143.161 178.838 138.103 172.697 139.938C165.148 142.201 161.574 153.524 171.366 163.706C176.718 169.267 184.419 173.241 186.796 180.581C187.233 181.94 187.471 183.385 188.174 184.631C188.954 186.009 190.133 186.703 191.311 186.703C192.49 186.703 193.66 186.009 194.449 184.631C195.152 183.385 195.39 181.94 195.827 180.581C198.194 173.232 205.905 169.267 211.257 163.706C221.049 153.524 217.475 142.201 209.926 139.938C203.775 138.094 195.856 143.152 191.321 131.553H191.302Z" fill="#F79AAF"/>
<path d="M191.302 187.179C189.876 187.179 188.583 186.332 187.756 184.868C187.233 183.946 186.957 182.938 186.691 181.959C186.577 181.55 186.472 181.142 186.339 180.742C184.752 175.827 180.759 172.5 176.528 168.982C174.646 167.423 172.706 165.807 171.014 164.048C165.985 158.819 163.922 152.716 165.348 147.297C166.356 143.465 169.046 140.547 172.545 139.491C174.417 138.931 176.452 138.978 178.42 139.035C183.23 139.159 187.765 139.282 190.855 131.382C190.998 131.021 191.597 131.021 191.739 131.382C194.829 139.282 199.373 139.159 204.174 139.035C206.142 138.978 208.177 138.931 210.05 139.491C213.548 140.537 216.248 143.456 217.256 147.297C218.682 152.725 216.619 158.829 211.59 164.048C209.898 165.807 207.958 167.423 206.076 168.982C201.845 172.5 197.852 175.818 196.274 180.742C196.141 181.142 196.036 181.56 195.922 181.969C195.656 182.948 195.38 183.956 194.857 184.878C194.021 186.351 192.728 187.188 191.311 187.188L191.302 187.179ZM176.652 139.948C175.311 139.948 174.037 140.033 172.83 140.395C169.645 141.345 167.202 144.017 166.279 147.525C164.939 152.621 166.916 158.401 171.708 163.383C173.362 165.103 175.283 166.7 177.146 168.25C181.291 171.701 185.579 175.266 187.252 180.448C187.385 180.866 187.499 181.284 187.613 181.712C187.879 182.682 188.127 183.585 188.592 184.402C189.248 185.562 190.237 186.228 191.311 186.228C192.386 186.228 193.374 185.562 194.03 184.402C194.487 183.585 194.743 182.672 195 181.712C195.114 181.284 195.238 180.866 195.371 180.448C197.044 175.266 201.332 171.701 205.477 168.25C207.34 166.7 209.261 165.103 210.915 163.383C215.706 158.401 217.684 152.621 216.343 147.525C215.421 144.017 212.968 141.345 209.793 140.395C208.063 139.881 206.199 139.929 204.222 139.976C199.735 140.09 194.667 140.233 191.321 132.78C187.974 140.233 182.907 140.1 178.42 139.976C177.83 139.957 177.241 139.948 176.671 139.948H176.652Z" fill="#404A2B"/>
<path d="M191.302 141.612C189.515 146.251 183.107 147.468 180.017 151.48C177.897 154.227 177.65 158.287 179.428 161.272C182.052 165.693 187.043 166.396 191.302 174.515C195.561 166.396 200.552 165.693 203.176 161.272C204.944 158.287 204.697 154.227 202.587 151.48C199.497 147.458 193.089 146.241 191.302 141.612Z" fill="#FFF4E3"/>
<path d="M191.302 174.991C191.121 174.991 190.96 174.896 190.884 174.734C188.431 170.047 185.74 167.898 183.373 165.997C181.719 164.666 180.15 163.411 179.028 161.519C177.155 158.353 177.412 154.113 179.656 151.195C181.053 149.369 183.088 148.114 185.056 146.907C187.556 145.367 189.923 143.903 190.874 141.44C191.017 141.07 191.616 141.07 191.758 141.44C192.709 143.903 195.076 145.357 197.576 146.907C199.544 148.124 201.579 149.379 202.976 151.195C205.22 154.113 205.477 158.353 203.604 161.519C202.482 163.421 200.913 164.676 199.259 165.997C196.892 167.898 194.201 170.056 191.749 174.734C191.663 174.886 191.501 174.991 191.33 174.991H191.302ZM191.302 142.724C190.056 144.929 187.765 146.346 185.541 147.715C183.649 148.884 181.69 150.092 180.388 151.775C178.372 154.389 178.144 158.192 179.827 161.034C180.863 162.784 182.299 163.934 183.953 165.255C186.263 167.109 188.868 169.191 191.292 173.517C193.726 169.191 196.322 167.109 198.632 165.255C200.286 163.924 201.722 162.784 202.758 161.034C204.441 158.192 204.212 154.389 202.197 151.775C200.904 150.092 198.945 148.884 197.044 147.715C194.819 146.346 192.528 144.929 191.283 142.724H191.302Z" fill="#404A2B"/>
<path d="M191.302 145.747C191.169 145.747 191.036 147.344 186.482 150.529C173.866 159.342 190.37 165.322 191.302 169.305C192.234 165.332 208.738 159.342 196.122 150.529C191.568 147.344 191.425 145.747 191.302 145.747Z" fill="#F79AAF"/>
<path d="M191.302 169.771C191.083 169.771 190.893 169.619 190.836 169.401C190.598 168.412 189.03 167.09 187.366 165.693C184.58 163.354 181.12 160.445 181.272 156.918C181.377 154.598 182.983 152.374 186.197 150.13C188.64 148.428 190.18 146.926 190.779 145.671C190.845 145.519 190.969 145.272 191.273 145.262H191.311C191.616 145.272 191.739 145.528 191.806 145.671C192.405 146.926 193.945 148.419 196.388 150.13C199.601 152.374 201.218 154.598 201.313 156.918C201.465 160.445 198.004 163.354 195.219 165.693C193.555 167.09 191.986 168.412 191.749 169.401C191.701 169.619 191.511 169.771 191.283 169.771H191.302ZM191.302 146.707C190.769 147.534 189.6 148.922 186.748 150.919C183.839 152.953 182.318 154.988 182.223 156.975C182.09 160.036 185.217 162.66 187.974 164.98C189.372 166.149 190.627 167.204 191.292 168.203C191.967 167.204 193.213 166.149 194.61 164.98C197.367 162.66 200.505 160.036 200.362 156.975C200.276 154.997 198.755 152.953 195.837 150.919C192.956 148.903 191.787 147.506 191.283 146.707H191.302Z" fill="#404A2B"/>
<path d="M12.9508 6.66937C10.8117 4.99614 7.34168 3.77925 4.81282 3.73171C4.55613 5.63311 3.89064 11.0616 5.04099 13.02C3.58642 12.8299 2.11283 12.9345 0.781856 13.3908C8.14977 20.1788 0.800869 33.2604 10.8307 47.3593C17.9134 57.2941 29.7306 59.0053 32.9535 56.0011C32.9535 56.0011 31.8032 54.6606 33.4954 53.6339C35.3207 52.5311 36.5186 53.6244 36.5186 53.6244C40.7397 52.455 45.6738 39.2308 42.6601 27.5467C40.8158 20.388 35.9957 12.9535 37.7165 5.25283C35.3683 5.8898 33.2197 7.2493 31.556 9.03661C31.3278 6.23205 27.6866 2.17257 26.2606 0.927154C24.055 4.27361 20.2902 4.19756 20.718 9.24577C19.1589 7.60106 17.8374 6.156 16.9913 4.71093C12.9508 -2.22917 13.7494 0.451805 12.9508 6.66937Z" fill="#F79AAF"/>
<path d="M36.6802 54.1948C36.4901 54.2518 36.2714 54.1948 36.1193 54.0617C36.0243 53.9856 35.1781 53.3106 33.7996 54.1378C33.4288 54.3659 33.2197 54.6036 33.1722 54.8603C33.1056 55.2406 33.4003 55.6018 33.4003 55.6018C33.6095 55.849 33.5905 56.2103 33.3528 56.4289C32.0693 57.6268 29.6926 58.1402 26.8215 57.855C22.0014 57.3701 15.1374 54.442 10.3269 47.7015C4.86035 40.0199 4.45155 32.4904 4.12831 26.4439C3.84311 21.0725 3.60543 16.8228 0.363548 13.8281C0.211437 13.6855 0.144888 13.4764 0.182916 13.2672C0.230451 13.0581 0.373055 12.8965 0.572702 12.8204C1.6565 12.4496 2.86389 12.288 4.11881 12.3355C3.63395 10.6053 3.67198 7.69614 4.21388 3.64616C4.25191 3.34194 4.5181 3.12328 4.81282 3.13278C7.20858 3.18032 10.2603 4.18806 12.4659 5.6046C12.5515 4.87256 12.6085 4.19756 12.6656 3.59862C12.8747 1.26941 12.9698 0.204631 13.8064 0.0239982C14.6335 -0.156635 15.2895 0.622938 17.4951 4.40672C18.1321 5.49052 19.0733 6.60283 20.1191 7.73416C20.3662 5.29087 21.8018 4.18806 23.1993 3.11377C24.093 2.41976 25.0247 1.70673 25.7567 0.594417C25.8518 0.451813 26.0039 0.356743 26.175 0.328222C26.3461 0.309208 26.5173 0.356743 26.6504 0.470827C27.563 1.26941 30.9665 4.76798 31.9172 7.82923C33.5524 6.31762 35.4824 5.23383 37.5549 4.67291C37.7545 4.61587 37.9732 4.67291 38.1253 4.81552C38.2774 4.95812 38.344 5.17678 38.2964 5.37643C37.1366 10.5768 39.095 15.7486 40.9964 20.7682C41.8235 22.9453 42.6791 25.1985 43.2401 27.3946C43.877 29.8664 44.1622 32.4238 44.1717 34.9336C44.2098 44.3931 40.3309 53.1871 36.6802 54.2043V54.1948ZM36.9464 6.12748C35.1116 6.80248 33.3908 7.95282 32.0028 9.44542C31.8412 9.61655 31.594 9.6831 31.3658 9.59753C31.1377 9.52148 30.9856 9.31232 30.9665 9.08416C30.7859 6.86903 28.0669 3.49405 26.3556 1.82082C25.5951 2.78102 24.7204 3.45602 23.9409 4.06447C22.2772 5.34791 21.0793 6.27959 21.3265 9.19824C21.3455 9.47394 21.2029 9.6926 20.9747 9.79718C20.7465 9.90176 20.4708 9.84471 20.2997 9.66408C18.8071 8.09543 17.4001 6.5553 16.4874 5.02467C16.0406 4.25461 14.7856 2.09652 14.1582 1.40251C14.0441 1.89687 13.9585 2.85708 13.8825 3.72222C13.8064 4.58735 13.7114 5.61411 13.5592 6.75494C13.5307 6.9641 13.3881 7.15424 13.198 7.23029C12.9983 7.31586 12.7702 7.27783 12.599 7.14473C10.7452 5.69967 7.73146 4.54932 5.34521 4.35918C4.63219 10.0729 5.16458 12.0503 5.56387 12.7158C5.67795 12.9155 5.67795 13.1627 5.54486 13.3433C5.42127 13.5334 5.1931 13.638 4.97444 13.6095C3.91916 13.4764 2.8829 13.5049 1.9322 13.695C4.84134 16.9559 5.06951 21.3482 5.34521 26.3774C5.67795 32.5759 6.05823 39.6111 11.3251 47.0075C15.898 53.4247 22.4007 56.2008 26.9641 56.6666C29.1792 56.8948 31.0806 56.5906 32.1834 55.849C32.0503 55.5448 31.9362 55.136 32.0123 54.6797C32.1074 54.0617 32.5162 53.5388 33.2007 53.1205C34.8264 52.1318 36.0718 52.6261 36.6232 52.9589C40.2644 51.4473 45.0369 39.1072 42.0897 27.6893C41.5383 25.5598 40.7397 23.4397 39.8841 21.1961C38.3535 17.1461 36.7753 12.9915 36.7563 8.71338C36.7563 7.85775 36.8133 6.99262 36.9464 6.12748Z" fill="#404A2B"/>
<path d="M36.2524 48.4146C36.0813 52.417 34.4271 53.9761 33.0676 54.5751C30.5577 55.6874 26.9831 54.5371 23.2659 51.4283C14.6621 44.241 7.33217 28.5545 11.5533 11.0901C12.2663 8.11444 12.5135 5.50953 12.6846 3.60813C12.8938 1.27892 12.9983 0.214134 13.8254 0.0335009C14.6525 -0.147132 15.3085 0.622934 17.5142 4.41622C18.4363 6.00389 20.0145 7.6486 21.8303 9.54999C27.6296 15.625 36.2429 24.6281 36.319 44.8875C36.319 46.0283 36.3 47.2072 36.2524 48.4146ZM13.873 3.7127C13.6923 5.65213 13.4547 8.31409 12.7131 11.3658C8.60611 28.3358 15.7078 43.547 24.0264 50.4966C27.3349 53.2631 30.5387 54.3754 32.5827 53.4723C34.0848 52.8068 34.9405 51.0385 35.0545 48.3575C36.0052 26.1017 26.9546 16.6327 20.9652 10.3581C19.0923 8.39965 17.4761 6.70741 16.4874 4.99615C16.0406 4.22608 14.7856 2.0775 14.1582 1.37399C14.0441 1.86835 13.9585 2.82856 13.873 3.69369V3.7127Z" fill="#404A2B"/>
<path d="M33.5524 56.0011C33.5524 55.8585 33.4954 55.7064 33.3908 55.5923C33.1627 55.3546 32.7919 55.3356 32.5447 55.5638C31.537 56.505 29.4454 56.9233 26.9641 56.6761C22.4007 56.2198 15.898 53.4437 11.3251 47.017C6.05823 39.6111 5.67795 32.5854 5.3357 26.3868C5.06 21.3576 4.82233 16.9654 1.92269 13.7045C4.85085 13.0961 8.41597 14.0563 10.8973 16.1954C11.1445 16.414 11.5248 16.3855 11.7339 16.1288C11.9526 15.8816 11.924 15.5013 11.6674 15.2922C8.5966 12.6588 4.04275 11.651 0.582209 12.8394C0.382562 12.9059 0.230451 13.0771 0.192423 13.2862C0.144888 13.4954 0.220944 13.7045 0.373055 13.8471C3.62444 16.8418 3.85261 21.0819 4.13782 26.4629C4.46106 32.5093 4.86986 40.0389 10.3459 47.7205C15.1469 54.4705 22.0205 57.3891 26.8405 57.874C29.7021 58.1592 32.0789 57.6458 33.3528 56.4479C33.4764 56.3338 33.5429 56.1722 33.5429 56.0106L33.5524 56.0011Z" fill="#404A2B"/>
<path d="M44.1717 34.9242C44.1622 32.4238 43.877 29.8664 43.2401 27.4041C42.6696 25.208 41.8235 22.9549 40.9964 20.7778C39.095 15.7676 37.1366 10.5768 38.2964 5.38596C38.344 5.17681 38.2774 4.96765 38.1253 4.82505C37.9732 4.68244 37.7545 4.6254 37.5549 4.68244C31.7271 6.27962 27.3444 12.0408 27.4585 17.8211C27.4585 18.1538 27.7437 18.4105 28.0764 18.401C28.3997 18.401 28.6563 18.1253 28.6563 17.8021V17.7831C28.6563 17.707 28.6563 17.6215 28.6563 17.5454C28.6373 12.6873 32.1739 7.87679 36.9464 6.1275C36.1383 11.3183 38.0397 16.338 39.8841 21.1961C40.7397 23.4397 41.5383 25.5693 42.0897 27.6989C45.1034 39.3734 40.0267 52.0272 36.357 53.0445C36.0433 53.13 35.8531 53.4628 35.9387 53.7765C36.0243 54.0902 36.357 54.2804 36.6707 54.1948C40.3214 53.1776 44.2003 44.3836 44.1717 34.9147V34.9242Z" fill="#404A2B"/>
<path d="M5.56387 13.5619C5.49732 13.5619 5.44028 13.5524 5.37373 13.5239C3.40578 12.6683 3.69099 8.4757 4.29944 4.06446L4.35648 3.67467C4.385 3.43699 4.58465 3.26587 4.83183 3.26587C8.02618 3.32291 11.3346 4.60635 13.274 6.52677C13.4642 6.71691 13.4642 7.01162 13.274 7.20176C13.0934 7.38239 12.7892 7.3919 12.599 7.20176C10.9068 5.52853 8.0547 4.38769 5.23113 4.23558C4.96493 6.19402 4.18536 11.9743 5.75401 12.6588C5.99168 12.7633 6.10577 13.0486 6.00119 13.2862C5.92514 13.4669 5.7445 13.5714 5.56387 13.5714V13.5619Z" fill="#404A2B"/>
<path d="M20.9557 9.96831C20.7275 9.96831 20.5279 9.79719 20.4898 9.56902C19.8339 5.43348 21.4786 4.30215 23.2279 3.11378C24.15 2.48632 25.1007 1.83984 25.8708 0.670481C25.9469 0.556397 26.0704 0.480341 26.2035 0.461327C26.3461 0.442313 26.4792 0.480341 26.5838 0.575411C27.9433 1.76378 32.5447 6.75495 31.8792 9.31233C31.8127 9.56902 31.556 9.72113 31.2993 9.65458C31.0426 9.58803 30.8905 9.33134 30.957 9.07466C31.4039 7.35389 28.1715 3.38948 26.3366 1.6497C25.5285 2.69547 24.5969 3.33244 23.7602 3.90286C22.0775 5.0532 20.8606 5.88031 21.431 9.41691C21.4691 9.6736 21.2979 9.92078 21.0317 9.95881C21.0032 9.95881 20.9842 9.95881 20.9557 9.95881V9.96831Z" fill="#404A2B"/>
<path d="M373.218 15.2257C375.357 13.5524 378.827 12.3356 381.356 12.288C381.613 14.1894 382.278 19.6179 381.128 21.5763C382.582 21.3862 384.056 21.4908 385.387 21.9471C378.019 28.7351 385.368 41.8167 375.338 55.9156C368.255 65.8504 356.438 67.5616 353.215 64.5574C353.215 64.5574 354.366 63.2169 352.673 62.1902C350.848 61.0874 349.65 62.1807 349.65 62.1807C345.429 61.0113 340.495 47.7871 343.509 36.103C345.353 28.9443 350.173 21.5098 348.452 13.8091C350.801 14.4461 352.949 15.8056 354.613 17.5929C354.841 14.7884 358.482 10.7289 359.908 9.48346C362.114 12.8299 365.879 12.7539 365.451 17.8021C367.01 16.1574 368.331 14.7123 369.178 13.2672C373.218 6.32714 372.419 9.00811 373.218 15.2257Z" fill="#F79AAF"/>
<path d="M341.997 43.4899C341.997 40.9801 342.292 38.4227 342.929 35.9509C343.49 33.7548 344.345 31.5016 345.172 29.3245C347.074 24.3143 349.032 19.133 347.872 13.9327C347.825 13.7236 347.891 13.5144 348.044 13.3718C348.196 13.2292 348.414 13.1721 348.614 13.2292C350.686 13.7901 352.616 14.8739 354.252 16.3855C355.202 13.3243 358.606 9.82569 359.518 9.0271C359.652 8.91302 359.823 8.86548 359.994 8.8845C360.165 8.91302 360.317 9.00809 360.412 9.15069C361.144 10.263 362.076 10.976 362.969 11.67C364.367 12.7443 365.803 13.8471 366.05 16.2904C367.096 15.1591 368.037 14.0373 368.674 12.963C370.87 9.17921 371.526 8.39964 372.362 8.58027C373.199 8.76091 373.294 9.82569 373.503 12.1549C373.56 12.7538 373.617 13.4193 373.703 14.1609C375.908 12.7443 378.96 11.7366 381.356 11.6891C381.66 11.6891 381.917 11.9077 381.955 12.2024C382.497 16.2524 382.525 19.1615 382.05 20.8918C383.305 20.8443 384.512 21.0059 385.596 21.3767C385.796 21.4432 385.948 21.6144 385.986 21.8235C386.033 22.0327 385.957 22.2418 385.805 22.3844C382.554 25.3791 382.326 29.6192 382.04 35.0002C381.717 41.0466 381.308 48.5762 375.842 56.2578C371.041 62.9983 364.177 65.9264 359.347 66.4113C356.476 66.6965 354.099 66.1831 352.816 64.9852C352.578 64.7666 352.559 64.4053 352.769 64.1581C352.769 64.1581 353.063 63.7968 352.997 63.4166C352.949 63.1599 352.74 62.9222 352.369 62.694C351 61.8669 350.145 62.5419 350.049 62.618C349.897 62.7511 349.688 62.7986 349.489 62.7511C345.838 61.7338 341.959 52.9494 341.997 43.4804V43.4899ZM349.413 17.2697C349.394 21.5478 347.825 25.7024 346.285 29.7523C345.429 31.996 344.631 34.116 344.079 36.2456C341.132 47.6635 345.904 60.0036 349.546 61.5152C350.097 61.1824 351.342 60.6881 352.968 61.6768C353.653 62.0951 354.052 62.618 354.157 63.2359C354.233 63.6923 354.118 64.1011 353.985 64.4053C355.088 65.1373 356.99 65.4416 359.205 65.2229C363.768 64.7666 370.271 61.981 374.844 55.5638C380.111 48.1674 380.491 41.1322 380.824 34.9336C381.099 29.9044 381.337 25.5122 384.237 22.2513C383.286 22.0612 382.25 22.0231 381.194 22.1658C380.966 22.1943 380.748 22.0897 380.624 21.8996C380.5 21.7094 380.491 21.4622 380.605 21.2721C381.004 20.5971 381.546 18.6292 380.824 12.9155C378.447 13.1056 375.424 14.2559 373.57 15.701C373.399 15.8341 373.17 15.8626 372.971 15.7866C372.771 15.701 372.629 15.5204 372.61 15.3112C372.467 14.1704 372.372 13.1436 372.286 12.2785C372.21 11.4134 372.125 10.4531 372.011 9.95879C371.383 10.6528 370.128 12.8014 369.681 13.5809C368.769 15.1211 367.362 16.6517 365.869 18.2204C365.698 18.401 365.422 18.458 365.194 18.3535C364.966 18.2489 364.823 18.0302 364.842 17.7545C365.08 14.8359 363.882 13.9042 362.228 12.6207C361.439 12.0123 360.574 11.3468 359.813 10.3771C358.102 12.0408 355.383 15.4253 355.202 17.6404C355.183 17.8781 355.031 18.0778 354.803 18.1538C354.584 18.2299 354.328 18.1728 354.166 18.0017C352.778 16.5091 351.048 15.3588 349.222 14.6838C349.355 15.5489 349.413 16.414 349.413 17.2697Z" fill="#404A2B"/>
<path d="M349.85 53.4438C349.926 33.1844 358.539 24.1717 364.339 18.1063C366.154 16.2049 367.723 14.5602 368.655 12.9725C370.86 9.18873 371.516 8.40916 372.343 8.58979C373.18 8.77043 373.275 9.83521 373.484 12.1644C373.655 14.0658 373.893 16.6802 374.616 19.6464C378.837 37.1108 371.507 52.7973 362.903 59.9751C359.176 63.0838 355.602 64.2342 353.101 63.1219C351.742 62.5229 350.088 60.9638 349.916 56.9613C349.869 55.7444 349.84 54.5751 349.85 53.4342V53.4438ZM372.02 9.94929C371.393 10.6433 370.138 12.7919 369.691 13.5715C368.693 15.2827 367.077 16.975 365.213 18.9334C359.224 25.1985 350.173 34.6675 351.124 56.9328C351.238 59.6138 352.094 61.3821 353.596 62.0476C355.64 62.9507 358.843 61.8384 362.152 59.0719C370.48 52.1223 377.572 36.9111 373.465 19.9411C372.724 16.8799 372.486 14.2274 372.305 12.288C372.229 11.4229 372.134 10.4627 372.02 9.96831V9.94929Z" fill="#404A2B"/>
<path d="M352.616 64.5574C352.616 64.4148 352.673 64.2627 352.778 64.1486C353.006 63.911 353.377 63.892 353.624 64.1201C354.632 65.0613 356.723 65.4796 359.205 65.2324C363.768 64.7761 370.271 62.0001 374.844 55.5733C380.111 48.1674 380.491 41.1417 380.833 34.9432C381.109 29.914 381.347 25.5218 384.246 22.2609C381.318 21.6524 377.753 22.6126 375.272 24.7517C375.024 24.9703 374.644 24.9418 374.435 24.6851C374.216 24.438 374.245 24.0577 374.501 23.8485C377.572 21.2151 382.126 20.2073 385.587 21.3957C385.786 21.4623 385.938 21.6334 385.976 21.8426C386.024 22.0517 385.948 22.2609 385.796 22.4035C382.544 25.3982 382.316 29.6383 382.031 35.0192C381.708 41.0657 381.299 48.5952 375.823 56.2769C371.022 63.0268 364.148 65.9455 359.328 66.4303C356.467 66.7155 354.09 66.2022 352.816 65.0043C352.692 64.8902 352.626 64.7286 352.626 64.5669L352.616 64.5574Z" fill="#404A2B"/>
<path d="M341.997 43.4804C342.007 40.9801 342.292 38.4227 342.929 35.9604C343.499 33.7643 344.345 31.5111 345.172 29.334C347.074 24.3239 349.032 19.133 347.872 13.9422C347.825 13.7331 347.891 13.5239 348.044 13.3813C348.196 13.2387 348.414 13.1817 348.614 13.2387C354.442 14.8359 358.824 20.5971 358.71 26.3774C358.71 26.7101 358.425 26.9668 358.092 26.9573C357.769 26.9573 357.513 26.6816 357.513 26.3584V26.3393C357.513 26.2633 357.513 26.1777 357.513 26.1017C357.532 21.2436 353.995 16.4331 349.222 14.6838C350.031 19.8746 348.129 24.8943 346.285 29.7524C345.429 31.996 344.631 34.1256 344.079 36.2551C341.065 47.9297 346.142 60.5835 349.812 61.6008C350.126 61.6863 350.316 62.0191 350.23 62.3328C350.145 62.6465 349.812 62.8367 349.498 62.7511C345.847 61.7339 341.969 52.9399 341.997 43.4709V43.4804Z" fill="#404A2B"/>
<path d="M380.605 22.1183C380.424 22.1183 380.244 22.0137 380.168 21.833C380.063 21.5954 380.168 21.3102 380.415 21.2056C381.983 20.5211 381.204 14.7408 380.938 12.7824C378.114 12.9345 375.253 14.0753 373.57 15.7486C373.38 15.9387 373.085 15.9292 372.895 15.7486C372.714 15.5584 372.714 15.2637 372.895 15.0736C374.834 13.1532 378.143 11.8697 381.337 11.8127C381.575 11.8127 381.774 11.9933 381.812 12.2215L381.86 12.6113C382.459 17.0225 382.744 21.2151 380.786 22.0707C380.729 22.0992 380.662 22.1087 380.595 22.1087L380.605 22.1183Z" fill="#404A2B"/>
<path d="M365.213 18.5246C365.213 18.5246 365.166 18.5246 365.137 18.5246C364.88 18.4866 364.7 18.2394 364.738 17.9827C365.299 14.4366 364.082 13.6095 362.409 12.4687C361.572 11.8983 360.64 11.2613 359.832 10.2155C357.997 11.9648 354.774 15.9292 355.212 17.6405C355.278 17.8972 355.126 18.1539 354.87 18.2204C354.613 18.287 354.356 18.1348 354.29 17.8782C353.624 15.3113 358.226 10.3201 359.595 9.14124C359.699 9.04617 359.832 9.00814 359.975 9.02715C360.108 9.04617 360.231 9.12222 360.308 9.23631C361.078 10.4057 362.028 11.0521 362.95 11.6796C364.7 12.868 366.344 13.9898 365.689 18.1348C365.65 18.3725 365.451 18.5341 365.223 18.5341L365.213 18.5246Z" fill="#404A2B"/>
</svg>
